<svg width="32" height="20" viewBox="0 0 32 20" fill="none" xmlns="http://www.w3.org/2000/svg">
<rect width="32" height="20" rx="10" fill="#216DD1"/>
<path fill-rule="evenodd" clip-rule="evenodd" d="M22.1617 4.21135C21.4579 4.39798 21.0008 5.08132 21.1137 5.77817C21.2465 6.59751 22.0658 7.1331 22.8703 6.92648C23.2767 6.8221 23.628 6.52957 23.8153 6.13964C23.9116 5.93904 23.9172 5.90798 23.9172 5.56814C23.9172 5.22829 23.9116 5.19723 23.8153 4.99664C23.6952 4.74654 23.4283 4.45707 23.2097 4.33973C22.892 4.16923 22.5011 4.12135 22.1617 4.21135ZM22.7282 5.15414C23.1173 5.34692 23.0409 5.94507 22.6171 6.02345C22.4645 6.0517 22.3272 6.01267 22.204 5.90604C21.7991 5.55545 22.2455 4.91501 22.7282 5.15414ZM12.1226 7.02135C11.7033 7.11126 11.4195 7.31226 11.2688 7.62617C11.1515 7.87042 11.1421 8.21857 11.2499 8.32501C11.3148 8.38907 11.3521 8.39626 11.6196 8.39626C11.8883 8.39626 11.9249 8.38914 11.9965 8.32285C12.0507 8.27273 12.0826 8.20085 12.0972 8.0961C12.1316 7.84967 12.1883 7.80501 12.4818 7.79348C12.7967 7.7811 12.9148 7.84104 12.9694 8.04104C13.0307 8.26576 12.9492 8.58832 12.8128 8.66029C12.7799 8.67764 12.6739 8.70101 12.577 8.71223C12.3301 8.74082 12.2562 8.82282 12.2562 9.06814C12.2562 9.32823 12.323 9.39198 12.6414 9.43604C12.8451 9.46423 12.8981 9.48451 12.981 9.56623C13.0737 9.6577 13.0797 9.67807 13.0886 9.93589C13.1043 10.3881 12.9712 10.5367 12.5504 10.5368C12.2242 10.5369 12.0175 10.4275 12.0175 10.2549C12.0175 10.108 11.9547 9.98204 11.8649 9.94864C11.6259 9.85967 11.2699 9.88526 11.1537 9.99979C11.1029 10.0499 11.09 10.1017 11.0921 10.247C11.1015 10.9006 11.6773 11.3474 12.5123 11.3489C13.3836 11.3505 13.9092 10.9688 14.0176 10.2556C14.1039 9.68785 13.9489 9.28986 13.5668 9.09757L13.4437 9.0357L13.5819 8.90348C13.7883 8.70611 13.8657 8.48042 13.8686 8.06814C13.8711 7.69707 13.8118 7.51632 13.6242 7.32317C13.3436 7.03429 12.6823 6.90139 12.1226 7.02135ZM15.8818 7.0076C15.4802 7.06585 15.116 7.28464 14.9423 7.57192C14.7582 7.87626 14.7429 7.99792 14.7429 9.15129C14.7429 9.80195 14.7562 10.2519 14.7785 10.3557C14.9161 10.9943 15.4299 11.3494 16.2165 11.3494C16.8472 11.3494 17.3114 11.1189 17.5295 10.6972C17.737 10.2961 17.7437 9.60964 17.544 9.21854C17.3534 8.84548 16.9921 8.66432 16.4354 8.66264C16.1537 8.66182 15.9389 8.7126 15.794 8.81439C15.7421 8.85082 15.6891 8.88064 15.6763 8.88064C15.6635 8.88064 15.6602 8.71992 15.669 8.52351C15.681 8.25511 15.7003 8.1367 15.7466 8.04695C15.8671 7.81323 16.2458 7.7161 16.5334 7.8451C16.698 7.91898 16.7336 7.96489 16.7684 8.14889C16.8039 8.33651 16.9056 8.4311 17.1032 8.46029C17.3182 8.49211 17.5106 8.45357 17.5986 8.36114C17.7054 8.24889 17.7067 7.90057 17.601 7.68807C17.331 7.14476 16.6886 6.89048 15.8818 7.0076ZM19.4978 7.00998C19.1451 7.06764 18.8126 7.2707 18.6477 7.52917C18.4412 7.85279 18.4348 7.90239 18.4348 9.16189C18.4348 10.4303 18.4447 10.5066 18.6484 10.8055C18.8815 11.1476 19.2387 11.3136 19.7975 11.3397C20.38 11.3669 20.7517 11.2426 21.0498 10.9209C21.135 10.829 21.2357 10.6755 21.2764 10.5759C21.3473 10.4019 21.3499 10.361 21.3604 9.27126C21.368 8.48464 21.3599 8.09457 21.3337 7.97439C21.283 7.74232 21.1302 7.46614 20.9771 7.3297C20.6508 7.03901 20.0778 6.91514 19.4978 7.00998ZM20.2178 7.87029C20.2655 7.90535 20.333 7.98179 20.3679 8.04017C20.4277 8.14039 20.4313 8.20245 20.4313 9.16189C20.4313 10.1301 20.4282 10.1826 20.3662 10.2868C20.261 10.4633 20.1217 10.5369 19.8925 10.5369C19.66 10.5369 19.5125 10.4578 19.4252 10.2863C19.3758 10.1894 19.3698 10.0681 19.3704 9.17751C19.371 8.2546 19.3758 8.1672 19.4326 8.04364C19.4793 7.94235 19.5273 7.89457 19.63 7.84729C19.806 7.76629 20.0915 7.77745 20.2178 7.87029ZM9.87797 8.54079C9.45436 8.76357 8.8353 9.29064 8.57537 9.64982C8.25844 10.0878 8.09784 10.598 8.12876 11.0687C8.21182 12.3327 9.45151 13.4197 11.5993 14.1119C12.519 14.4083 13.763 14.6471 14.7142 14.7098C14.8781 14.7206 15.0323 14.7358 15.0568 14.7434C15.086 14.7526 15.0022 14.8571 14.814 15.0464C14.5931 15.2685 14.5216 15.3618 14.5049 15.4493C14.4417 15.7814 14.7288 16.0808 15.0539 16.0219C15.1528 16.004 15.2837 15.8899 15.9085 15.2767C16.697 14.5028 16.7387 14.4458 16.6933 14.2039C16.6738 14.0999 16.5723 13.9866 15.9366 13.3592C15.3061 12.7369 15.1856 12.6316 15.0835 12.6135C14.7202 12.5491 14.439 12.8092 14.5038 13.1498C14.5213 13.2417 14.5846 13.3274 14.7829 13.5278L15.0393 13.7869H14.9162C14.5496 13.7869 13.4164 13.6147 12.7594 13.4592C10.4629 12.9156 8.99711 11.882 9.08147 10.8657C9.1207 10.3928 9.5064 9.89642 10.1696 9.4652C10.3998 9.31551 10.5023 9.22845 10.5397 9.15064C10.7452 8.72364 10.3038 8.31685 9.87797 8.54079ZM22.4148 8.72942C22.2432 8.84554 22.1778 8.95426 22.1782 9.1227C22.1784 9.20442 22.1957 9.30251 22.2166 9.3407C22.2376 9.37885 22.389 9.51554 22.5532 9.64442C23.3874 10.2994 23.598 10.9574 23.182 11.6097C23.0646 11.7937 22.7181 12.1407 22.4753 12.3174C21.6164 12.9421 20.1622 13.4454 18.5457 13.6775C18.0478 13.7489 17.9205 13.834 17.8657 14.1317C17.8387 14.278 17.9537 14.4986 18.1 14.5815C18.2367 14.659 18.4021 14.6565 18.926 14.5694C20.7837 14.2605 22.1882 13.7297 23.1906 12.9579C24.4085 12.0201 24.6787 10.7408 23.8893 9.64982C23.7237 9.4211 23.2599 8.97811 23.0056 8.80582C22.7715 8.64729 22.5739 8.62173 22.4148 8.72942ZM16.5667 9.47451C16.6949 9.5911 16.7394 9.72573 16.7393 9.99682C16.7393 10.2713 16.6846 10.4137 16.539 10.519C16.4094 10.6128 16.022 10.6121 15.894 10.518C15.7292 10.3969 15.6799 10.2714 15.6808 9.97567C15.6823 9.51523 15.8191 9.37057 16.2378 9.38698C16.4455 9.3951 16.4935 9.40789 16.5667 9.47451Z" fill="white"/>
</svg>
