<svg width="24" height="15" viewBox="0 0 24 15" fill="none" xmlns="http://www.w3.org/2000/svg">
<path fill-rule="evenodd" clip-rule="evenodd" d="M20.1969 1.07023C20.0926 1.10598 19.9554 1.17001 19.8921 1.21252C19.8287 1.25502 17.9943 2.97794 15.8156 5.04118C13.6369 7.10446 11.3635 9.25657 10.7636 9.82376L9.67287 10.8549L7.54356 8.73339C6.37241 7.56655 5.30243 6.52737 5.16581 6.42408C4.47899 5.90502 3.52369 6.12149 3.1046 6.89114C2.95293 7.16961 2.96846 7.71807 3.13651 8.01965C3.22119 8.17163 4.20097 9.18157 5.85147 10.8181C7.27185 12.2265 8.56235 13.4912 8.71921 13.6286C9.03088 13.9015 9.28902 14.0004 9.6876 13.9996C10.2453 13.9986 10.052 14.1662 16.0688 8.46543C19.1431 5.55267 21.7123 3.09945 21.7783 3.01394C22.1475 2.53459 22.0422 1.71299 21.5616 1.32423C21.1837 1.01854 20.642 0.917746 20.1969 1.07023Z" fill="#216DD1"/>
</svg>
