<svg width="24" height="24" viewBox="0 0 24 24" fill="none" xmlns="http://www.w3.org/2000/svg">
<path fill-rule="evenodd" clip-rule="evenodd" d="M11.0715 1.53447C10.5107 1.71826 10.132 2.30512 10.209 2.87103C10.2674 3.30092 10.2796 3.31456 13.1997 6.22619C16.3209 9.33845 16.136 9.18497 16.7212 9.14997C17.4072 9.10898 17.8716 8.62238 17.8726 7.94364C17.8733 7.39514 17.9612 7.49852 14.8864 4.4272C12.6229 2.16613 12.1082 1.67181 11.9408 1.59821C11.692 1.48888 11.2986 1.46005 11.0715 1.53447ZM7.07136 7.08485L4.46362 9.69285L7.07136 12.3008L9.67911 14.9088L12.2975 12.2907L14.9159 9.67256L12.3183 7.07471C10.8896 5.6459 9.71131 4.47686 9.69989 4.47686C9.68847 4.47686 8.50564 5.65046 7.07136 7.08485ZM2.4509 10.2215C2.07781 10.319 1.74662 10.5889 1.59515 10.9188C1.52915 11.0626 1.50734 11.1909 1.50689 11.4384C1.50636 11.7227 1.52188 11.7951 1.62209 11.9758C1.70473 12.1249 2.53547 12.9806 4.51758 14.9586C7.60578 18.0402 7.39849 17.8659 7.97566 17.8659C8.44309 17.8659 8.8227 17.6232 9.06777 17.1677C9.18794 16.9444 9.17731 16.3472 9.04876 16.0999C8.98288 15.9732 8.08524 15.0483 6.19463 13.1591C3.99923 10.9653 3.39656 10.385 3.24036 10.3142C3.02417 10.2162 2.64254 10.1714 2.4509 10.2215ZM14.4641 12.0222C14.3123 12.0747 14.0934 12.2704 13.239 13.1176C12.6668 13.6849 12.1493 14.2322 12.089 14.3338C11.9908 14.4994 11.9793 14.5594 11.9794 14.9088C11.9796 15.3545 12.0418 15.5162 12.3147 15.7796C12.5547 16.0112 12.8235 16.1141 13.1979 16.1175L13.513 16.1204L15.2311 17.8043C16.1761 18.7305 17.0978 19.6309 17.2793 19.8052L17.6092 20.1222L18.9134 18.8175L20.2176 17.5127L18.1645 15.5058L16.1113 13.4989L16.1134 13.1844C16.1149 12.9462 16.0931 12.8178 16.0235 12.656C15.9103 12.3928 15.6048 12.1075 15.3396 12.0171C15.1006 11.9357 14.7074 11.938 14.4641 12.0222ZM19.7911 19.7037L18.4852 21.0122L18.9629 21.5321C19.47 22.084 19.6785 22.249 20.0396 22.3841C21.3367 22.8694 22.7146 21.7313 22.4808 20.3677C22.3905 19.8412 22.2938 19.6972 21.3162 18.6337L21.097 18.3952L19.7911 19.7037ZM5.17619 18.8726C4.40998 19.0252 3.66828 19.5337 3.22981 20.207C3.03517 20.5058 2.86325 20.889 2.81976 21.1208L2.79084 21.2748H2.38067C1.9169 21.2748 1.74403 21.3315 1.60267 21.5301C1.38832 21.8311 1.50036 22.2628 1.83484 22.4248C2.00224 22.5058 2.08837 22.5069 8.26241 22.5069C14.4365 22.5069 14.5226 22.5058 14.69 22.4248C15.0245 22.2628 15.1365 21.8311 14.9222 21.5301C14.7808 21.3315 14.6079 21.2748 14.1442 21.2748H13.734L13.7079 21.1357C13.6649 20.9067 13.4811 20.4924 13.2961 20.2076C12.8465 19.5154 12.1183 19.0232 11.3168 18.8698C10.8847 18.7871 5.59319 18.7896 5.17619 18.8726Z" fill="#216DD1"/>
</svg>
