<svg width="16" height="16" viewBox="0 0 16 16" fill="none" xmlns="http://www.w3.org/2000/svg">
<path fill-rule="evenodd" clip-rule="evenodd" d="M4.84149 2.02459C4.7545 2.06485 4.67652 2.14767 4.64345 2.2349C4.62967 2.27124 4.6184 2.44206 4.6184 2.61451V2.92803L3.93151 2.93637C3.25819 2.94454 3.2411 2.94592 3.06624 3.00726C2.57652 3.17905 2.23758 3.51556 2.06632 4.00007L2 4.18763V8.47174V12.7558L2.06632 12.9434C2.23746 13.4276 2.57487 13.7628 3.06624 13.9368L3.24462 14H8H12.7554L12.943 13.9337C13.4274 13.7626 13.7627 13.4253 13.9368 12.9342L14 12.7558V8.47174V4.18763L13.9368 4.00932C13.7626 3.51779 13.4259 3.1794 12.943 3.01036C12.7568 2.94519 12.7501 2.94463 12.0702 2.93637L11.3849 2.92806L11.3774 2.57941C11.3692 2.19999 11.3578 2.16457 11.2082 2.0529C11.1173 1.98504 10.8945 1.98504 10.8036 2.0529C10.6538 2.16466 10.6425 2.19981 10.6343 2.58124L10.6268 2.93174H8H5.37324L5.36568 2.58124C5.35749 2.20136 5.34584 2.16441 5.19991 2.05548C5.12209 1.99741 4.93507 1.98128 4.84149 2.02459ZM4.6222 3.93951C4.63077 4.21676 4.65118 4.26902 4.79182 4.37397C4.88275 4.44184 5.10551 4.44184 5.19644 4.37397C5.33708 4.26902 5.35749 4.21676 5.36606 3.93951L5.37402 3.68293H8H10.626L10.6339 3.93951C10.6425 4.21676 10.6629 4.26902 10.8036 4.37397C10.8945 4.44184 11.1173 4.44184 11.2082 4.37397C11.349 4.2689 11.3692 4.21688 11.3778 3.93814L11.3858 3.68021L12.0236 3.68744L12.6614 3.69467L12.7945 3.75995C12.9636 3.843 13.1001 3.97946 13.1832 4.14857C13.2481 4.28071 13.2486 4.28486 13.256 4.82731L13.2634 5.3731H8.00155H2.73973V4.87213C2.73973 4.5024 2.74863 4.34155 2.77373 4.25817C2.84524 4.0207 3.05053 3.80831 3.28773 3.72636C3.39158 3.69049 3.49554 3.68436 4.01163 3.6837L4.61424 3.68293L4.6222 3.93951ZM13.2547 9.39312L13.2485 12.662L13.185 12.7912C13.1032 12.9577 12.958 13.1032 12.7927 13.1844L12.6614 13.2488H8H3.33855L3.20923 13.1853C3.04266 13.1036 2.89711 12.9584 2.81593 12.7931L2.75147 12.662L2.74527 9.39312L2.73909 6.12428H8H13.2609L13.2547 9.39312Z" fill="#7C8DB5"/>
</svg>
