<svg width="19" height="16" viewBox="0 0 19 16" fill="none" xmlns="http://www.w3.org/2000/svg">
<path fill-rule="evenodd" clip-rule="evenodd" d="M6.09788 1.46443C6.04166 1.5321 5.75643 1.96488 5.46397 2.42622C5.17155 2.88752 4.91834 3.24907 4.90129 3.22962C4.88425 3.21018 4.58279 2.81458 4.23136 2.35058C3.87993 1.88654 3.54796 1.48972 3.4936 1.46879C3.36422 1.41901 3.20264 1.48318 3.11449 1.61946C3.04868 1.72122 3.05755 1.78653 3.27719 2.82034C3.41987 3.49186 3.49149 3.91401 3.46287 3.91466C3.43726 3.91527 2.93742 3.85254 2.35211 3.77528L1.28792 3.63481L1.17924 3.73822C1.03876 3.87189 1.03346 4.0822 1.16741 4.20558C1.22065 4.25463 1.64934 4.54581 2.11999 4.8526C2.79939 5.2955 2.96299 5.42019 2.91379 5.45768C2.87975 5.48367 2.48011 5.79516 2.02577 6.14991C1.20963 6.78712 1.19969 6.79689 1.19969 6.96059C1.19969 7.12657 1.27057 7.22871 1.42384 7.28365C1.46426 7.29816 1.9727 7.20631 2.55367 7.07957C3.57038 6.85771 3.60998 6.85243 3.60998 6.93784C3.60998 6.98667 3.54942 7.49313 3.47539 8.06333C3.34915 9.03563 3.34519 9.10682 3.41139 9.20914C3.5437 9.41366 3.86211 9.39574 3.95457 9.17858C3.97764 9.12426 4.07375 8.47646 4.16809 7.73897C4.35381 6.28668 4.35252 6.23187 4.12979 6.13845C4.03755 6.09973 3.90395 6.1149 3.44673 6.21583C3.13408 6.28489 2.87828 6.3359 2.87828 6.32927C2.87828 6.3226 3.0832 6.15641 3.33361 5.96C3.58407 5.76356 3.80952 5.55717 3.83461 5.50132C3.92216 5.30675 3.81623 5.17805 3.28481 4.83329C3.01248 4.65655 2.79509 4.50727 2.80171 4.50147C2.8083 4.49572 3.06551 4.52523 3.37325 4.56717C3.97781 4.64948 4.07999 4.63632 4.19288 4.46184C4.25977 4.35843 4.25667 4.3192 4.13796 3.76443C4.0688 3.44116 4.02773 3.18638 4.04676 3.19828C4.06578 3.21018 4.2305 3.41705 4.41287 3.65796C4.59519 3.89892 4.78934 4.11337 4.84431 4.13456C4.96177 4.17977 5.10935 4.13182 5.20671 4.01672C5.4143 3.77127 6.66589 1.73212 6.66589 1.63934C6.66589 1.35261 6.28756 1.23612 6.09788 1.46443ZM8.98226 3.62601C8.68425 3.73378 8.56718 3.84896 8.0027 4.58936C7.69194 4.99699 7.4238 5.33513 7.40688 5.34084C7.38992 5.34651 7.33431 5.28587 7.28331 5.20608C7.15139 4.99974 6.92164 4.90086 6.52734 4.88064C6.25097 4.86651 6.16244 4.87968 6.00039 4.95911C5.64117 5.13528 5.51506 5.4518 5.66617 5.79782C5.77339 6.0434 5.99294 6.21544 6.35784 6.33978L6.64118 6.43639L6.18254 6.90797C5.59098 7.51619 5.52496 7.65531 5.46164 8.42588C5.43603 8.7376 5.36351 9.27711 5.3005 9.62479C5.23744 9.97248 5.18308 10.4237 5.1796 10.6275C5.17615 10.8313 5.12976 11.2115 5.07651 11.4722C4.96831 12.0022 4.98027 12.1737 5.13879 12.3645C5.27239 12.5253 5.36889 12.563 5.99144 12.6974C6.58617 12.8258 6.75081 12.8327 6.94922 12.7373C7.14678 12.6423 7.24651 12.4607 7.33707 12.0308C7.40598 11.7037 7.42203 11.6705 7.50235 11.6899C7.55124 11.7017 8.97602 12.0086 10.6685 12.3718C12.361 12.7351 13.7488 13.0356 13.7525 13.0397C13.7562 13.0438 13.7235 13.2127 13.68 13.415C13.5898 13.8341 13.6052 13.9887 13.7576 14.1962C13.8962 14.3849 14.0079 14.4282 14.7377 14.5762L15.3419 14.6988L15.5421 14.6006C15.7911 14.4785 15.8756 14.3112 16.005 13.6839C16.0564 13.4346 16.1362 13.1791 16.1822 13.116C16.2284 13.0528 16.3499 12.66 16.4533 12.2395C16.5564 11.8205 16.7324 11.203 16.8445 10.8673C17.1013 10.0979 17.0992 9.9073 16.8263 9.26381C16.7269 9.02931 16.6348 8.77004 16.6216 8.68764L16.5975 8.53784L16.7425 8.57995C17.4094 8.7737 18.0688 8.3049 17.9055 7.75305C17.7588 7.25697 16.8891 6.91329 16.4601 7.18185C16.3425 7.25548 16.3023 7.26425 16.2866 7.21965C16.2753 7.18769 16.1684 6.76014 16.0489 6.2695C15.9293 5.77886 15.8035 5.334 15.7691 5.28094C15.4331 4.7614 14.5314 4.44807 11.7232 3.87507C10.2649 3.57748 9.34695 3.49408 8.98226 3.62601ZM10.4447 4.30629C11.9622 4.55706 14.0238 5.03846 14.6804 5.29528C15.1953 5.4967 15.2037 5.50991 15.4421 6.50004C15.6423 7.33134 15.6467 7.36352 15.559 7.34185C15.5088 7.32947 14.7705 7.16955 13.9183 6.98649C13.0661 6.80343 11.7878 6.52881 11.0776 6.37618C10.3674 6.22355 9.39899 6.01585 8.92554 5.91458C8.45209 5.8133 8.04866 5.71643 8.02904 5.69925C7.98105 5.65727 9.01726 4.30995 9.13441 4.26208C9.29668 4.19577 9.89899 4.21609 10.4447 4.30629ZM6.75042 5.59017C6.81515 5.66921 6.77336 5.74468 6.66481 5.74468C6.5628 5.74468 6.27852 5.6104 6.27852 5.56223C6.27852 5.49797 6.69507 5.52264 6.75042 5.59017ZM11.6288 7.16341C13.8112 7.63199 15.6436 8.03033 15.7008 8.04864C15.7916 8.07767 15.8194 8.14242 15.9212 8.56182C15.9853 8.8258 16.1177 9.24372 16.2154 9.49047C16.3132 9.73727 16.3931 9.99528 16.3931 10.0639C16.3931 10.1324 16.2983 10.4786 16.1824 10.8331C16.0664 11.1876 15.9085 11.7523 15.8313 12.088C15.7541 12.4237 15.6769 12.7148 15.6596 12.7348C15.6424 12.7548 15.46 12.7358 15.2542 12.6924L14.8802 12.6137L14.6419 12.2201C14.3551 11.7462 14.1486 11.5152 13.9183 11.4104C13.8236 11.3674 13.2813 11.2317 12.7131 11.1089C12.145 10.9861 11.4187 10.829 11.0991 10.7598C8.02551 10.0941 7.97881 10.0856 7.72017 10.1442C7.54401 10.1841 7.35321 10.2843 7.02713 10.508L6.57714 10.8168L6.20492 10.7434C6.00022 10.7031 5.82267 10.6599 5.81036 10.6474C5.79805 10.635 5.81096 10.493 5.83903 10.3319C5.86709 10.1708 5.92752 9.82316 5.97327 9.5594C6.01902 9.29564 6.07734 8.82876 6.10291 8.52184C6.12852 8.214 6.1769 7.91109 6.21081 7.84609C6.2446 7.78135 6.43032 7.57139 6.62353 7.37956C6.81675 7.18773 7.1006 6.86891 7.25434 6.67111C7.40808 6.47331 7.56239 6.31144 7.59725 6.31144C7.63211 6.31144 9.44629 6.69483 11.6288 7.16341ZM7.16086 7.02878C6.75399 7.24471 6.4942 7.94104 6.68358 8.30817C6.85591 8.64234 8.06123 9.27602 8.52448 9.27602C8.60975 9.27602 8.69626 9.2316 8.78393 9.14279L8.91551 9.00951L8.8945 8.60302C8.87595 8.24395 8.85456 8.15768 8.71137 7.86414C8.51863 7.46898 8.30958 7.23796 8.01948 7.09941C7.74514 6.9684 7.33776 6.93487 7.16086 7.02878ZM7.827 7.74211C7.8867 7.78688 7.97799 7.88663 8.02981 7.96376C8.14813 8.1398 8.27988 8.48404 8.24321 8.52123C8.21002 8.5548 7.54904 8.22891 7.38458 8.0979C7.2506 7.99114 7.24212 7.92823 7.33672 7.74285C7.39879 7.6213 7.41923 7.61149 7.5617 7.63491C7.64787 7.64908 7.76726 7.69729 7.827 7.74211ZM17.1284 7.8174C17.3107 7.91288 17.2419 7.98224 16.9892 7.95761C16.7517 7.9345 16.7159 7.91336 16.7523 7.8174C16.785 7.73121 16.9638 7.73117 17.1284 7.8174ZM9.11922 8.49128C8.95356 8.65908 9.02754 8.93405 9.25876 9.00982C9.50284 9.08978 13.0618 9.84278 13.1958 9.84278C13.3571 9.84278 13.4807 9.70907 13.4807 9.53464C13.4807 9.2663 13.4541 9.2571 11.3975 8.81468C10.3476 8.58885 9.4249 8.40408 9.34699 8.40408C9.26268 8.40408 9.17044 8.4394 9.11922 8.49128ZM14.65 8.67281C14.2469 8.82553 13.7857 9.26146 13.6048 9.66076C13.3447 10.2346 13.5235 10.4455 14.3042 10.4858C14.8294 10.5129 15.4203 10.4357 15.6721 10.307C15.9074 10.1866 16.0187 9.96515 16.0414 9.57222C16.0628 9.20112 15.948 8.9327 15.6951 8.76319C15.5489 8.66519 15.4699 8.64674 15.1516 8.63619C14.9467 8.62944 14.721 8.64592 14.65 8.67281ZM15.3516 9.32834C15.38 9.35711 15.4032 9.45451 15.4032 9.5448C15.4032 9.76871 15.3255 9.80162 14.7268 9.83149C14.2488 9.85533 14.2325 9.85324 14.2751 9.7732C14.3307 9.6687 14.4722 9.53913 14.6922 9.3912C14.821 9.30466 14.9179 9.27602 15.0818 9.27602C15.2017 9.27602 15.3231 9.29956 15.3516 9.32834ZM9.38061 9.52169C9.23091 9.71443 9.27989 9.92452 9.49419 10.0088C9.56018 10.0348 10.2774 10.1977 11.0879 10.3708C12.3238 10.6347 12.5792 10.6774 12.6706 10.6352C12.8787 10.5392 12.9077 10.206 12.7186 10.0837C12.6175 10.0183 9.79621 9.40681 9.5956 9.40681C9.51094 9.40681 9.44061 9.44439 9.38061 9.52169ZM10.7873 11.3624C12.442 11.7189 13.6375 11.9969 13.7033 12.0405C13.8064 12.109 13.997 12.3716 13.9662 12.4028C13.9587 12.4103 13.7803 12.3771 13.5697 12.329C13.359 12.2809 11.9515 11.9769 10.442 11.6536C8.93247 11.3302 7.63762 11.0499 7.56458 11.0307L7.4318 10.9959L7.64064 10.8782C7.75551 10.8134 7.87951 10.76 7.91623 10.7594C7.9529 10.7588 9.2449 11.0301 10.7873 11.3624ZM6.22545 11.415C6.45585 11.4644 6.67531 11.5138 6.71319 11.5248C6.77564 11.5429 6.77607 11.5718 6.71814 11.8382C6.68306 11.9996 6.64781 12.1392 6.63989 12.1485C6.62009 12.1715 5.70465 11.9767 5.6685 11.9417C5.63979 11.9139 5.75471 11.3251 5.78884 11.3251C5.79857 11.3251 5.99509 11.3655 6.22545 11.415ZM14.9345 13.2916C15.1805 13.3421 15.3868 13.3882 15.3931 13.394C15.4078 13.4076 15.2891 13.9839 15.2669 14.0062C15.2457 14.0278 14.3312 13.8287 14.2983 13.7954C14.2529 13.7494 14.3779 13.1997 14.4337 13.1997C14.4632 13.1997 14.6886 13.2411 14.9345 13.2916Z" fill="#7C8DB5"/>
</svg>
