<svg width="24" height="24" viewBox="0 0 24 24" fill="none" xmlns="http://www.w3.org/2000/svg">
<path fill-rule="evenodd" clip-rule="evenodd" d="M4.98307 1.63262C4.85033 1.69834 4.78527 1.76422 4.73103 1.88785C4.68157 2.00069 4.46404 3.43327 4.05774 6.32252L3.45752 10.5905L2.50246 12.9954C1.97723 14.3181 1.54785 15.4484 1.54834 15.5072C1.54883 15.566 1.58351 15.6896 1.62541 15.7818C1.69742 15.9404 1.97192 16.1233 6.65834 19.1352C9.38457 20.8873 11.6739 22.3511 11.7458 22.388C11.9124 22.4735 12.0943 22.4734 12.2602 22.3876C12.332 22.3505 14.6196 20.888 17.3438 19.1377C21.9183 16.1984 22.3033 15.9424 22.3822 15.7878C22.4419 15.6708 22.4614 15.5742 22.447 15.4669C22.4357 15.3824 22.0039 14.2507 21.4875 12.9519L20.5485 10.5905L19.9477 6.32252C19.5445 3.45761 19.323 1.99947 19.2741 1.88699C19.2191 1.76054 19.1569 1.69797 19.0201 1.63173C18.7891 1.5199 18.637 1.52108 18.4507 1.6361C18.369 1.68654 17.2662 2.86728 16.0001 4.26L13.6981 6.7922H12.0031H10.3081L8.0061 4.26C6.73999 2.86728 5.63724 1.68654 5.55555 1.6361C5.36882 1.5208 5.21089 1.51986 4.98307 1.63262ZM9.05436 10.8438C9.2491 10.9892 9.32323 11.1276 9.32323 11.3461C9.32323 11.9466 8.55621 12.1728 8.21497 11.6729C8.02101 11.3887 8.13541 10.9661 8.45063 10.8027C8.62539 10.7121 8.90329 10.731 9.05436 10.8438ZM15.5556 10.805C15.9502 11.0033 16.0011 11.5777 15.6464 11.8303C15.3983 12.007 15.1124 11.9918 14.8822 11.7896C14.3584 11.3297 14.9316 10.4915 15.5556 10.805ZM10.1418 16.5121C10.7027 17.1542 11.231 17.7993 11.3209 17.9518C11.4104 18.1037 11.5288 18.2767 11.5839 18.3363C11.7889 18.5581 12.2173 18.5581 12.4224 18.3363C12.4774 18.2767 12.5958 18.1037 12.6853 17.9518C12.7752 17.7993 13.3038 17.1539 13.8653 16.5111L14.8824 15.3467L15.0458 15.3693C15.1357 15.3818 16.2752 15.5109 17.5781 15.6562C18.881 15.8016 19.9715 15.9251 20.0014 15.9307C20.0314 15.9363 18.2439 17.1046 16.0293 18.527L12.0026 21.1131L7.97588 18.527C4.99115 16.61 3.97401 15.9375 4.04508 15.9278C4.18917 15.9082 8.99155 15.3583 9.06335 15.3531C9.09757 15.3506 9.58286 15.8722 10.1418 16.5121Z" fill="#216DD1"/>
</svg>
