<svg width="16" height="16" viewBox="0 0 16 16" fill="none" xmlns="http://www.w3.org/2000/svg">
<path fill-rule="evenodd" clip-rule="evenodd" d="M5.2387 1.03716C5.0075 1.0948 4.83443 1.19322 4.6601 1.36624C4.48055 1.54445 4.37201 1.74069 4.32201 1.97755C4.30068 2.0786 4.2914 2.95722 4.2914 4.87846V7.63439L4.02887 7.68321C3.27235 7.82398 2.63398 8.16441 2.08076 8.72208C1.63437 9.17209 1.38291 9.5754 1.1915 10.1483C0.8259 11.2427 0.988011 12.4103 1.64159 13.3898C1.71688 13.5027 1.9145 13.7321 2.08076 13.8997C2.6127 14.4359 3.16993 14.7431 3.94817 14.9291L4.19529 14.9881L9.01416 14.9974C12.545 15.0041 13.8771 14.9982 13.9978 14.9754C14.2208 14.9331 14.5048 14.7798 14.6535 14.6214C14.7987 14.4667 14.9262 14.2256 14.9691 14.0245C14.9914 13.9202 15 12.5031 15 8.96939C15 4.52805 14.9958 4.05091 14.9562 3.97172C14.8957 3.851 12.155 1.11668 12.0288 1.05117C11.9297 0.999744 11.8379 0.998349 8.65145 1.00062C6.12765 1.00242 5.34449 1.01079 5.2387 1.03716ZM11.4305 3.02361C11.4305 4.17698 11.4328 4.2329 11.4857 4.33624C11.5213 4.40575 11.5796 4.46385 11.6494 4.4993C11.7532 4.55201 11.8093 4.55436 12.967 4.55436H14.1763V9.20571C14.1763 13.8134 14.1757 13.8581 14.121 13.965C14.0854 14.0345 14.0271 14.0926 13.9573 14.128C13.8504 14.1823 13.8023 14.1831 10.4494 14.1831H7.04985L7.32808 13.9027C7.86565 13.361 8.20723 12.7158 8.34469 11.9828L8.3937 11.7212H10.5722C12.7013 11.7212 12.7531 11.72 12.859 11.6662C12.9808 11.6042 13.0779 11.4466 13.0779 11.3109C13.0779 11.1752 12.9808 11.0176 12.859 10.9556C12.7531 10.9018 12.7013 10.9006 10.5697 10.9006H8.38886L8.37044 10.7706C8.31503 10.38 8.13084 9.85113 7.92782 9.49996C7.86082 9.38406 7.80601 9.28249 7.80601 9.27428C7.80601 9.26605 8.91856 9.25932 10.2783 9.25932C12.702 9.25932 12.7528 9.25823 12.859 9.20426C12.9808 9.14233 13.0779 8.98474 13.0779 8.849C13.0779 8.71327 12.9808 8.55568 12.859 8.49375C12.7525 8.43962 12.7028 8.43869 9.89274 8.43869H7.03486L6.89186 8.33354C6.42908 7.99319 5.79851 7.7342 5.24556 7.65734L5.11513 7.6392L5.11629 4.88634C5.11758 1.79223 5.10201 2.01752 5.32362 1.88389L5.4309 1.8192L8.43068 1.81906L11.4305 1.81893V3.02361ZM12.9269 3.07723L13.5855 3.73373H12.9198H12.2542V3.07723C12.2542 2.71615 12.2574 2.42072 12.2613 2.42072C12.2652 2.42072 12.5647 2.71615 12.9269 3.07723ZM6.42655 6.0332C6.31063 6.09417 6.21345 6.25556 6.21345 6.38711C6.21345 6.52284 6.31057 6.68043 6.4324 6.74236C6.5391 6.79658 6.58803 6.79742 9.6457 6.79742C12.7034 6.79742 12.7523 6.79658 12.859 6.74236C12.9808 6.68043 13.0779 6.52284 13.0779 6.38711C13.0779 6.25138 12.9808 6.09379 12.859 6.03186C12.7522 5.97761 12.7046 5.97682 9.63993 5.978C6.59707 5.97917 6.52697 5.98038 6.42655 6.0332ZM5.36311 8.51646C5.90623 8.6575 6.36398 8.91359 6.73683 9.28501C7.10757 9.65437 7.35826 10.0975 7.51098 10.6535C7.55747 10.8228 7.56754 10.94 7.56754 11.3109C7.56754 11.8033 7.54028 11.9525 7.36993 12.3922C7.11229 13.0574 6.45635 13.7108 5.78871 13.9675C5.34732 14.1372 5.19756 14.1644 4.70327 14.1644C4.20897 14.1644 4.05921 14.1372 3.61782 13.9675C2.95018 13.7108 2.29424 13.0574 2.0366 12.3922C1.86927 11.9603 1.83959 11.8012 1.83737 11.3246C1.83512 10.8352 1.88086 10.5935 2.05258 10.1879C2.42972 9.29699 3.31068 8.61562 4.27767 8.46686C4.53489 8.42731 5.12323 8.4542 5.36311 8.51646ZM5.87023 10.2069C5.82492 10.2304 5.41415 10.6206 4.95742 11.074L4.12698 11.8984L3.84537 11.6211C3.69048 11.4686 3.52422 11.3241 3.47589 11.3C3.14074 11.1329 2.76742 11.5048 2.93495 11.8388C2.99568 11.9599 3.81519 12.7799 3.94021 12.8447C4.06415 12.9089 4.18269 12.9119 4.29963 12.8538C4.42089 12.7935 6.3419 10.8836 6.40753 10.7581C6.47537 10.6282 6.47472 10.5157 6.4053 10.3801C6.30881 10.1917 6.05683 10.1102 5.87023 10.2069Z" fill="#7C8DB5"/>
</svg>
