<svg width="16" height="16" viewBox="0 0 16 16" fill="none" xmlns="http://www.w3.org/2000/svg">
<path d="M2.85938 2.67969V4.99107C2.85938 6.88463 4.39441 8.41967 6.28798 8.41967V8.41967M6.28798 8.41967V13.5997V2.67969V8.41967ZM6.28798 8.41967H13.1452M13.1452 8.55967V8.41967M13.1452 2.67969V8.41967M13.149 13.5997L13.1452 8.41967M9.71658 8.55967V2.67969V13.5997V8.55967Z" stroke="#7C8DB5" stroke-width="0.5"/>
<path d="M3.4643 1.84C3.4643 2.1611 3.19726 2.43 2.85715 2.43C2.51704 2.43 2.25 2.1611 2.25 1.84C2.25 1.51889 2.51704 1.25 2.85715 1.25C3.19726 1.25 3.4643 1.51889 3.4643 1.84Z" stroke="#7C8DB5" stroke-width="0.5"/>
<path d="M6.89399 1.84C6.89399 2.1611 6.62695 2.43 6.28684 2.43C5.94673 2.43 5.67969 2.1611 5.67969 1.84C5.67969 1.51889 5.94673 1.25 6.28684 1.25C6.62695 1.25 6.89399 1.51889 6.89399 1.84Z" stroke="#7C8DB5" stroke-width="0.5"/>
<path d="M6.89399 14.1603C6.89399 14.4814 6.62695 14.7503 6.28684 14.7503C5.94673 14.7503 5.67969 14.4814 5.67969 14.1603C5.67969 13.8392 5.94673 13.5703 6.28684 13.5703C6.62695 13.5703 6.89399 13.8392 6.89399 14.1603Z" stroke="#7C8DB5" stroke-width="0.5"/>
<path d="M10.3237 1.84C10.3237 2.1611 10.0566 2.43 9.71653 2.43C9.37642 2.43 9.10938 2.1611 9.10938 1.84C9.10938 1.51889 9.37642 1.25 9.71653 1.25C10.0566 1.25 10.3237 1.51889 10.3237 1.84Z" stroke="#7C8DB5" stroke-width="0.5"/>
<path d="M10.3237 14.1603C10.3237 14.4814 10.0566 14.7503 9.71653 14.7503C9.37642 14.7503 9.10938 14.4814 9.10938 14.1603C9.10938 13.8392 9.37642 13.5703 9.71653 13.5703C10.0566 13.5703 10.3237 13.8392 10.3237 14.1603Z" stroke="#7C8DB5" stroke-width="0.5"/>
<path d="M13.7495 1.84C13.7495 2.1611 13.4824 2.43 13.1423 2.43C12.8022 2.43 12.5352 2.1611 12.5352 1.84C12.5352 1.51889 12.8022 1.25 13.1423 1.25C13.4824 1.25 13.7495 1.51889 13.7495 1.84Z" stroke="#7C8DB5" stroke-width="0.5"/>
<path d="M13.7495 14.1603C13.7495 14.4814 13.4824 14.7503 13.1423 14.7503C12.8022 14.7503 12.5352 14.4814 12.5352 14.1603C12.5352 13.8392 12.8022 13.5703 13.1423 13.5703C13.4824 13.5703 13.7495 13.8392 13.7495 14.1603Z" stroke="#7C8DB5" stroke-width="0.5"/>
</svg>
