<svg width="12" height="12" viewBox="0 0 12 12" fill="none" xmlns="http://www.w3.org/2000/svg">
<path fill-rule="evenodd" clip-rule="evenodd" d="M2.28732 1.53192C1.92107 1.62828 1.62227 1.92993 1.52852 2.29801C1.50377 2.39515 1.50006 2.73923 1.50006 4.94102C1.50006 7.73014 1.49344 7.56789 1.61751 7.81752C1.69824 7.97999 1.89987 8.18157 2.06239 8.26229C2.24885 8.35491 2.37433 8.37971 2.65676 8.37971H2.90587V8.03303V7.68635L2.71375 7.68623C2.60807 7.68618 2.48807 7.67683 2.44707 7.66545C2.35152 7.63892 2.24104 7.52847 2.2145 7.43293C2.18527 7.32769 2.18527 2.55434 2.2145 2.4491C2.24104 2.35357 2.35152 2.24312 2.44707 2.21658C2.55234 2.18737 7.32689 2.18737 7.43216 2.21658C7.52772 2.24312 7.6382 2.35357 7.66474 2.4491C7.67612 2.49009 7.68547 2.60586 7.68552 2.70634L7.68564 2.88905H8.0324H8.37917V2.64937C8.37917 2.49663 8.36886 2.3692 8.35072 2.29801C8.25587 1.92571 7.95569 1.6256 7.58329 1.53078C7.41932 1.48902 2.44627 1.49009 2.28732 1.53192ZM4.48689 3.62144C4.06115 3.69355 3.71731 4.02663 3.6276 4.45379C3.58636 4.65022 3.58636 9.44819 3.6276 9.64462C3.71433 10.0576 4.03918 10.3824 4.45227 10.4691C4.64874 10.5103 9.44793 10.5103 9.6444 10.4691C10.0585 10.3821 10.3821 10.0586 10.4691 9.64462C10.5103 9.44819 10.5103 4.65022 10.4691 4.45379C10.3906 4.07996 10.1194 3.77861 9.7475 3.65201L9.62566 3.61052L7.10457 3.6078C5.71797 3.6063 4.54001 3.61243 4.48689 3.62144ZM9.59361 4.34874C9.67316 4.38933 9.71147 4.42859 9.7546 4.51376C9.78215 4.56816 9.78498 4.80409 9.78498 7.04921C9.78498 9.29432 9.78215 9.53025 9.7546 9.58465C9.71147 9.66982 9.67316 9.70908 9.59361 9.74967C9.52641 9.78397 9.44071 9.78516 7.04815 9.78516C4.80263 9.78516 4.56666 9.78234 4.51225 9.75479C4.42706 9.71167 4.38779 9.67337 4.34719 9.59383C4.31289 9.52665 4.31169 9.44098 4.31169 7.04921C4.31169 4.65743 4.31289 4.57176 4.34719 4.50458C4.38691 4.42677 4.42586 4.38811 4.5085 4.34445C4.55898 4.31778 4.81815 4.31467 7.0444 4.314C9.44144 4.31326 9.52637 4.31443 9.59361 4.34874Z" fill="#7C8DB5"/>
</svg>
