<svg width="17" height="20" viewBox="0 0 17 20" fill="none" xmlns="http://www.w3.org/2000/svg">
<path fill-rule="evenodd" clip-rule="evenodd" d="M2.351 2.03936C2.21503 2.09409 2.09181 2.2116 2.03942 2.33647C2.01193 2.40198 2 4.71948 2 10.0005C2 16.3187 2.00835 17.5887 2.0504 17.6796C2.15536 17.9063 2.43768 18.0356 2.72265 17.9873C2.82337 17.9702 3.51344 17.489 5.6692 15.9322C7.21748 14.8141 8.5038 13.906 8.52771 13.9142C8.55158 13.9223 9.82057 14.8312 11.3476 15.934C12.8747 17.0367 14.1687 17.9545 14.2231 17.9734C14.4735 18.0608 14.8221 17.924 14.9451 17.69C15.0011 17.5834 15.0052 16.9718 14.9964 9.95255L14.987 2.33087L14.9108 2.23875C14.8689 2.18808 14.7887 2.11571 14.7326 2.07788C14.6306 2.00914 14.6276 2.00911 8.54622 2.00191C3.53187 1.996 2.44233 2.00257 2.351 2.03936ZM13.8231 9.69907C13.8231 15.0019 13.8138 16.3333 13.777 16.3128C13.7516 16.2988 12.6137 15.4808 11.2484 14.495C8.64771 12.6173 8.668 12.6301 8.37741 12.6794C8.28511 12.695 7.58906 13.1793 5.7356 14.5175C4.35151 15.5168 3.21084 16.3345 3.20071 16.3345C3.19059 16.3345 3.18231 13.3476 3.18231 9.6971V3.05975H8.50273H13.8231V9.69907Z" fill="#216DD1"/>
</svg>
