<svg width="16" height="16" viewBox="0 0 16 16" fill="none" xmlns="http://www.w3.org/2000/svg">
<path d="M12.428 15.3992H2.94878C2.77437 15.3992 2.63281 15.2648 2.63281 15.0992V2.49922C2.63281 2.33362 2.77437 2.19922 2.94878 2.19922H12.428C12.6024 2.19922 12.7439 2.33362 12.7439 2.49922V15.0992C12.7439 15.2648 12.6024 15.3992 12.428 15.3992ZM3.26476 14.7992H12.112V2.79922H3.26476V14.7992Z" fill="#7C8DB5"/>
<path d="M11.1641 2.79999C10.9896 2.79999 10.8481 2.66559 10.8481 2.5V1.6H8.95226V2.5C8.95226 2.66559 8.8107 2.79999 8.63628 2.79999C8.46187 2.79999 8.32031 2.66559 8.32031 2.5V1.3C8.32031 1.1344 8.46187 1 8.63628 1H11.1641C11.3385 1 11.48 1.1344 11.48 1.3V2.5C11.48 2.66559 11.3385 2.79999 11.1641 2.79999Z" fill="#7C8DB5"/>
<path d="M13.059 2.79922H2.31597C2.14156 2.79922 2 2.66482 2 2.49922C2 2.33362 2.14156 2.19922 2.31597 2.19922H13.059C13.2334 2.19922 13.375 2.33362 13.375 2.49922C13.375 2.66482 13.2334 2.79922 13.059 2.79922Z" fill="#7C8DB5"/>
<path d="M13.059 15.4008H2.31597C2.14156 15.4008 2 15.2664 2 15.1008C2 14.9352 2.14156 14.8008 2.31597 14.8008H13.059C13.2334 14.8008 13.375 14.9352 13.375 15.1008C13.375 15.2664 13.2334 15.4008 13.059 15.4008Z" fill="#7C8DB5"/>
<path d="M13.059 5.79922H2.31597C2.14156 5.79922 2 5.66482 2 5.49922C2 5.33362 2.14156 5.19922 2.31597 5.19922H13.059C13.2334 5.19922 13.375 5.33362 13.375 5.49922C13.375 5.66482 13.2334 5.79922 13.059 5.79922Z" fill="#7C8DB5"/>
<path d="M13.059 12.4008H2.31597C2.14156 12.4008 2 12.2664 2 12.1008C2 11.9352 2.14156 11.8008 2.31597 11.8008H13.059C13.2334 11.8008 13.375 11.9352 13.375 12.1008C13.375 12.2664 13.2334 12.4008 13.059 12.4008Z" fill="#7C8DB5"/>
<path d="M7.6849 11.201C6.773 11.201 5.78906 10.6088 5.78906 9.65122C5.78906 8.83882 7.16165 7.14623 7.43654 6.81503C7.55598 6.67103 7.81318 6.67103 7.93262 6.81503C8.20815 7.14623 9.58073 8.83822 9.58073 9.65122C9.58073 10.6088 8.59679 11.201 7.6849 11.201ZM7.6849 7.49483C7.09592 8.24843 6.42101 9.26242 6.42101 9.65122C6.42101 10.238 7.07697 10.601 7.6849 10.601C8.29283 10.601 8.94878 10.238 8.94878 9.65122C8.94878 9.26302 8.27387 8.24843 7.6849 7.49483Z" fill="#7C8DB5"/>
</svg>
