<svg width="23" height="20" viewBox="0 0 23 20" fill="none" xmlns="http://www.w3.org/2000/svg">
<path fill-rule="evenodd" clip-rule="evenodd" d="M18.0879 2.82585C17.8313 3.01829 4.30206 16.6462 4.27424 16.7403C4.18426 17.0447 4.46533 17.3366 4.77418 17.2595C4.84193 17.2426 5.31122 16.7998 6.12529 15.9848L7.3726 14.736L7.74822 14.8897C8.63392 15.2521 9.68068 15.5183 10.5898 15.6125C11.1958 15.6753 12.3139 15.6381 12.8417 15.5376C14.9723 15.1319 17.2045 13.9126 19.3711 11.9711C19.8825 11.5128 20.9859 10.3857 21.0883 10.2171C21.1834 10.0604 21.1837 9.9365 21.0891 9.78069C20.9855 9.61001 19.9503 8.55244 19.4331 8.08886C18.5848 7.32856 17.6261 6.60286 16.7567 6.06297L16.2935 5.77534L17.4976 4.56009C18.1599 3.89172 18.7139 3.30497 18.7286 3.25625C18.8018 3.01533 18.6375 2.76531 18.3841 2.73183C18.2644 2.71602 18.2122 2.73259 18.0879 2.82585ZM10.7281 4.37278C9.63391 4.52779 8.78033 4.77247 7.82408 5.20527C6.12774 5.97297 4.48522 7.15746 2.83376 8.80406C1.98349 9.65183 1.84007 9.82493 1.83984 10.0039C1.83939 10.3192 3.33445 11.9699 4.43725 12.8717C4.95829 13.2978 5.56032 13.7328 5.70589 13.7885C5.94824 13.881 6.21783 13.6759 6.21783 13.3991C6.21783 13.216 6.15911 13.157 5.4751 12.6536C4.90654 12.2351 4.2482 11.6553 3.72527 11.1125C3.26421 10.634 2.78326 10.0733 2.78326 10.0144C2.78326 9.96615 3.67636 9.08214 4.16086 8.65078C5.3984 7.54901 6.65206 6.68232 7.85964 6.0936C9.93435 5.08221 11.6664 4.90095 13.6359 5.48911C14.0715 5.61914 14.171 5.6122 14.3137 5.44187C14.4488 5.28056 14.4436 5.06185 14.3012 4.91877C14.1631 4.78005 13.5555 4.59547 12.7284 4.44094C12.4031 4.38013 11.0108 4.3327 10.7281 4.37278ZM16.2899 6.72842C17.409 7.42163 18.5314 8.3161 19.6051 9.3703L20.2392 9.99288L19.8618 10.3775C18.3052 11.9639 16.4618 13.3156 14.8739 14.035C12.9483 14.9074 11.2476 15.0634 9.26385 14.5496C8.88567 14.4516 8.18837 14.2153 8.03967 14.1346C8.00996 14.1185 8.27084 13.8308 8.76293 13.337L9.53265 12.5645L9.73408 12.6981C10.2583 13.0457 10.7064 13.186 11.3697 13.2101C11.9279 13.2303 12.2086 13.1852 12.6913 12.9977C13.6982 12.6067 14.4872 11.6312 14.6756 10.5443C14.7017 10.3934 14.7119 10.1034 14.7005 9.83137C14.6769 9.2646 14.5408 8.8044 14.2562 8.3288L14.066 8.01092L14.8688 7.20379C15.3104 6.75989 15.6903 6.3967 15.713 6.3967C15.7358 6.3967 15.9954 6.54599 16.2899 6.72842ZM10.8413 6.82911C10.2133 6.97325 9.69128 7.26331 9.23516 7.7215C8.76625 8.19247 8.48092 8.72024 8.34278 9.37208C8.26688 9.7303 8.29133 10.4937 8.38452 10.6742C8.51737 10.9316 8.86812 10.9593 9.05019 10.7268C9.12258 10.6343 9.12662 10.5952 9.10386 10.2083C9.07253 9.67647 9.13798 9.34004 9.35862 8.89884C9.63603 8.34401 10.1245 7.92183 10.7532 7.69353C11.0061 7.60167 11.0794 7.59287 11.6016 7.59192C12.1062 7.59101 12.1823 7.5826 12.2512 7.51997C12.4584 7.33174 12.4189 6.9946 12.1747 6.86668C12.0054 6.77801 11.1669 6.75439 10.8413 6.82911ZM13.6933 8.98702C14.0222 9.69307 13.9756 10.5532 13.5709 11.2414C13.4102 11.5147 13.0115 11.9152 12.7394 12.0766C12.0194 12.5038 11.1728 12.5325 10.4117 12.1556L10.0954 11.9989L11.7872 10.2992C13.6942 8.38328 13.4806 8.53038 13.6933 8.98702Z" fill="#216DD1"/>
</svg>
