<svg width="16" height="16" viewBox="0 0 16 16" fill="none" xmlns="http://www.w3.org/2000/svg">
<path fill-rule="evenodd" clip-rule="evenodd" d="M10.0138 0.327491C9.02002 0.428695 8.13024 0.770486 7.34065 1.35437C7.02 1.59147 6.45832 2.16673 6.22936 2.49245C5.21349 3.93778 4.98622 5.74479 5.61176 7.40295L5.717 7.68193L3.01473 10.3856L0.3125 13.0892V14.3883V15.6875H1.6119H2.91132L3.32388 15.2741L3.73647 14.8606V14.3729V13.8851H4.22487H4.71323L5.23104 13.3666L5.74881 12.8481V12.4204V11.9926H6.17662H6.60441L7.46061 11.1374L8.31678 10.2822L8.59572 10.3874C9.22327 10.6241 9.80477 10.7298 10.4793 10.7298C11.3429 10.7298 12.0079 10.5741 12.792 10.1881C15.3393 8.93401 16.4069 5.84145 15.1764 3.28111C14.3835 1.63157 12.8425 0.53855 11.0286 0.339237C10.7551 0.309167 10.251 0.303339 10.0138 0.327491ZM11.3413 1.29777C13.2769 1.70577 14.6815 3.34945 14.7802 5.32225C14.8704 7.12484 13.8268 8.77786 12.1393 9.50551C11.6077 9.73472 11.0894 9.83535 10.4493 9.8337C9.75795 9.83193 9.23537 9.70642 8.54604 9.37664C8.34171 9.27889 8.15919 9.19893 8.14039 9.19893C8.12156 9.19893 7.68059 9.62474 7.16044 10.1452L6.21471 11.0914H5.76103C5.5115 11.0914 5.20394 11.1002 5.07756 11.1109L4.84776 11.1303V11.7949V12.4595L4.58435 12.7217L4.32095 12.9839H3.9884C3.80552 12.9839 3.47126 12.9928 3.24564 13.0036L2.83543 13.0233V13.7462V14.469L2.67876 14.6277L2.5221 14.7863H1.86782H1.21355V14.1186V13.4509L4.00679 10.6648C5.54307 9.13239 6.80002 7.86454 6.80002 7.84729C6.80002 7.83002 6.73905 7.69448 6.66454 7.54606C6.36461 6.94881 6.21972 6.45414 6.17191 5.86437C6.04489 4.2975 6.77834 2.80297 8.1063 1.92284C8.66465 1.55278 9.26685 1.32955 9.95368 1.23802C10.2685 1.19606 11.0103 1.22802 11.3413 1.29777ZM11.2248 2.74175C10.646 2.84437 10.1721 3.19965 9.92416 3.71669C9.78759 4.00146 9.74344 4.19402 9.74344 4.50466C9.74344 5.23772 10.2295 5.92202 10.9231 6.16549C11.1814 6.25612 11.6396 6.27778 11.9176 6.21247C12.5087 6.0736 12.9974 5.61997 13.1894 5.03194C13.2934 4.71355 13.2997 4.29075 13.2049 3.98705C13.0323 3.43389 12.5728 2.96699 12.0385 2.80189C11.8149 2.73277 11.4341 2.70462 11.2248 2.74175ZM11.8964 3.71858C12.4172 3.9716 12.5353 4.67628 12.1273 5.09644C11.9758 5.25247 11.8029 5.33051 11.5721 5.34709C11.2873 5.36752 11.0942 5.2969 10.8978 5.10047C10.3299 4.53242 10.7777 3.55979 11.5756 3.6287C11.6664 3.63657 11.8108 3.67701 11.8964 3.71858Z" fill="#7C8DB5"/>
</svg>
