<svg width="16" height="16" viewBox="0 0 16 16" fill="none" xmlns="http://www.w3.org/2000/svg">
<path fill-rule="evenodd" clip-rule="evenodd" d="M8.02069 1.00003C4.76706 0.989074 2.10949 3.55601 2.00327 6.76908L2 6.96852C2.05408 8.54343 2.59444 10.0447 3.54617 11.2816L3.7697 11.5708C4.67814 12.7162 5.75772 13.7216 6.9699 14.5503L7.26176 14.7451L7.30435 14.7783C7.71982 15.0743 8.28079 15.0743 8.69627 14.7783L8.73172 14.7494C9.69356 14.1308 10.5805 13.404 11.375 12.5834C12.9903 10.8879 13.9638 8.98806 14.0006 7.05863L14.0006 6.98699C14.0117 3.75241 11.431 1.10897 8.20081 1.00328L8.02069 1.00003ZM8.01753 2.06232C10.6849 2.07137 12.8505 4.18474 12.9309 6.81659L12.9332 7.04864C12.9023 8.66626 12.0482 10.333 10.6033 11.8497C9.86654 12.6107 9.04047 13.2872 8.14453 13.8625L8.08481 13.907C8.03656 13.9485 7.96499 13.9485 7.91674 13.907L7.8587 13.8636C6.52401 12.9994 5.3526 11.9085 4.39805 10.6405C3.62916 9.64121 3.17354 8.44642 3.08183 7.20004L3.06836 6.95012C3.07742 4.2987 5.20206 2.14459 7.84796 2.0646L8.01753 2.06232ZM7.99977 4.78138C6.7373 4.78138 5.71387 5.79938 5.71387 7.05515C5.71387 8.31092 6.7373 9.32892 7.99977 9.32892C9.26224 9.32892 10.2857 8.31092 10.2857 7.05515C10.2857 5.79938 9.26224 4.78138 7.99977 4.78138ZM8.00024 5.8437C8.67293 5.8437 9.21825 6.38613 9.21825 7.05525C9.21825 7.72437 8.67293 8.2668 8.00024 8.2668C7.32755 8.2668 6.78223 7.72437 6.78223 7.05525C6.78223 6.38613 7.32755 5.8437 8.00024 5.8437Z" fill="#7C8DB5"/>
</svg>
