<svg width="24" height="24" viewBox="0 0 24 24" fill="none" xmlns="http://www.w3.org/2000/svg">
<path fill-rule="evenodd" clip-rule="evenodd" d="M10.7224 1.94497C12.3104 2.06165 13.9435 2.69807 15.1989 3.68939C15.7839 4.15128 16.5504 4.99503 16.9594 5.62732C18.2281 7.58869 18.58 9.85453 17.9711 12.1412C17.841 12.6295 17.6014 13.2253 17.3173 13.7661C17.177 14.0335 17.0838 14.2598 17.0838 14.3335C17.0838 14.4431 17.3202 14.6932 19.3162 16.6948C21.1659 18.5498 21.5767 18.9813 21.7123 19.2119C22.036 19.7619 22.1349 20.2521 22.0159 20.716C21.9387 21.0173 21.8436 21.1807 21.5867 21.454C20.962 22.1185 20.171 22.1874 19.2668 21.656C19.0361 21.5204 18.6044 21.1099 16.7483 19.2612C14.7456 17.2664 14.4954 17.0301 14.3857 17.0301C14.3119 17.0301 14.0855 17.1232 13.818 17.2635C12.6785 17.8612 11.5927 18.1526 10.3493 18.1945C8.62183 18.2527 7.11747 17.838 5.67464 16.9057C5.04199 16.4969 4.19776 15.7309 3.73561 15.1463C2.83429 14.0062 2.26078 12.6463 2.03907 11.1236C1.96642 10.6247 1.97773 9.38334 2.05961 8.86972C2.30503 7.32959 2.90953 5.98788 3.88299 4.82266C5.1424 3.31514 6.93589 2.31569 8.91477 2.01864C9.32622 1.95687 10.3283 1.91605 10.7224 1.94497ZM9.13153 4.13879C8.23041 4.27867 7.31294 4.66426 6.55248 5.2227C6.13847 5.52674 5.50853 6.16547 5.21041 6.58348C3.70589 8.69304 3.74488 11.6139 5.3052 13.6861C6.48317 15.2506 8.41611 16.1675 10.3446 16.0768C11.9236 16.0025 13.2842 15.4095 14.3732 14.3211C16.744 11.9516 16.7245 8.12621 14.3296 5.77807C12.9457 4.42113 11.0876 3.83519 9.13153 4.13879ZM10.3398 5.22109C12.1584 5.42148 13.7419 6.55671 14.5479 8.23786C14.7633 8.68727 14.7341 9.04417 14.459 9.32215C14.2176 9.56611 13.7975 9.64385 13.5187 9.49617C13.2728 9.36599 13.2105 9.29343 12.9805 8.86984C12.701 8.35501 12.4783 8.0651 12.1367 7.77134C11.0869 6.86821 9.72448 6.63615 8.3938 7.13375C8.02649 7.27111 7.7264 7.23088 7.47552 7.01071C7.12917 6.70679 7.09163 6.13878 7.39627 5.81217C7.5718 5.62395 8.15827 5.39954 8.7853 5.28066C9.20335 5.20139 9.91415 5.17415 10.3398 5.22109Z" fill="#216DD1"/>
</svg>
