<svg width="24" height="24" viewBox="0 0 24 24" fill="none" xmlns="http://www.w3.org/2000/svg">
<path fill-rule="evenodd" clip-rule="evenodd" d="M6.62428 2.50146C6.56293 2.542 6.48242 2.61794 6.44536 2.67028C6.38267 2.75882 6.37658 3.37679 6.35786 11.568C6.33889 19.8614 6.33365 20.3844 6.26689 20.609C6.18201 20.8948 5.92895 21.4469 5.8546 21.5086C5.82538 21.5328 5.80149 21.5684 5.80149 21.5875C5.80149 21.6074 8.78682 21.6224 12.7413 21.6224C20.384 21.6224 19.9363 21.6364 20.5058 21.3799C21.2326 21.0525 21.7546 20.475 22.0372 19.6855L22.1618 19.3373L22.1725 11.111C22.18 5.24373 22.1706 2.85464 22.1397 2.78C22.1159 2.7225 22.0429 2.62414 21.9774 2.56143L21.8585 2.44749L14.2971 2.43764C6.99184 2.42814 6.73202 2.43029 6.62428 2.50146ZM2.09733 4.76076C2.03896 4.79693 1.95376 4.89318 1.90796 4.97465L1.82471 5.12272L1.83512 12.7268C1.8453 20.1181 1.84773 20.3358 1.92176 20.5097C2.14539 21.0348 2.53216 21.398 3.02798 21.5485C3.25317 21.6169 3.37045 21.629 3.64323 21.612C4.27252 21.5728 4.77963 21.2214 5.06211 20.6289L5.18524 20.3706L5.19558 12.7292C5.20703 4.27958 5.22691 4.93661 4.95468 4.77074C4.83517 4.69785 4.74759 4.6932 3.51541 4.69404C2.36474 4.69483 2.19036 4.70306 2.09733 4.76076ZM18.4713 5.87112C18.8186 6.03588 18.8862 6.50848 18.6015 6.78114L18.479 6.89846L14.2892 6.90891L10.0993 6.9194L9.9606 6.79767C9.71879 6.58542 9.67835 6.25994 9.86438 6.02352C10.0403 5.79998 9.86045 5.8088 14.2639 5.80714C17.9645 5.80574 18.3456 5.81151 18.4713 5.87112ZM18.5087 9.28536C18.6962 9.42529 18.7758 9.56403 18.7758 9.75085C18.7758 9.97904 18.6639 10.16 18.4626 10.2574C18.304 10.3342 18.2045 10.336 14.2781 10.336C9.84307 10.336 10.0342 10.3466 9.85225 10.0912C9.62039 9.76575 9.77564 9.34247 10.1714 9.22114C10.228 9.20382 12.1023 9.19273 14.3366 9.19654C18.3721 9.20338 18.3996 9.20398 18.5087 9.28536ZM18.5119 12.679C18.6898 12.7874 18.7758 12.9363 18.7758 13.1358C18.7758 13.3538 18.6598 13.5552 18.4829 13.6444C18.3544 13.7092 18.0698 13.7139 14.25 13.7138C10.2611 13.7137 10.1517 13.7117 10.0279 13.6363C9.66301 13.4139 9.65474 12.9299 10.0118 12.6915L10.1469 12.6013L14.2659 12.6014C18.2785 12.6015 18.3881 12.6036 18.5119 12.679ZM18.4713 16.0447C18.8186 16.2095 18.8862 16.6821 18.6015 16.9548L18.479 17.0721L14.2892 17.0825L10.0993 17.093L9.9606 16.9713C9.71879 16.759 9.67835 16.4336 9.86438 16.1972C10.0403 15.9736 9.86045 15.9824 14.2639 15.9808C17.9645 15.9794 18.3456 15.9851 18.4713 16.0447Z" fill="#7C8DB5"/>
</svg>
