<svg width="26" height="26" viewBox="0 0 26 26" fill="none" xmlns="http://www.w3.org/2000/svg">
<path fill-rule="evenodd" clip-rule="evenodd" d="M12.5187 1.4598C12.135 1.55538 11.8477 1.71859 11.5584 2.00552C11.0868 2.47312 10.9467 2.89183 10.9459 3.83584L10.9454 4.412L10.5927 4.54201C8.44672 5.33296 6.81325 7.08131 6.20049 9.24319C5.98925 9.98847 5.97212 10.1863 5.93383 12.3279C5.89391 14.5588 5.86766 14.8471 5.60738 15.9116C5.32636 17.0611 4.81314 18.2238 4.14223 19.2312C3.84831 19.6725 3.58379 20.0064 2.90855 20.7889C2.63346 21.1077 2.73254 21.6184 3.10625 21.8082C3.28145 21.8972 3.36895 21.8996 6.47313 21.8996H9.66011L9.6891 22.0532C9.80809 22.6845 10.3645 23.4998 10.992 23.9624C11.27 24.1672 11.7719 24.4086 12.1313 24.5104C12.4996 24.6146 13.4004 24.6288 13.772 24.5361C14.9185 24.2504 15.8734 23.3787 16.2185 22.3025L16.347 21.9017L19.5277 21.9007C22.6244 21.8996 22.7132 21.8972 22.8883 21.8082C23.0041 21.7495 23.1009 21.6531 23.16 21.5378C23.3315 21.2031 23.2642 20.9596 22.8901 20.5613C21.7278 19.3237 20.8054 17.6108 20.3863 15.9116C20.1269 14.8595 20.0998 14.5624 20.0605 12.3279C20.0227 10.1836 20.0062 9.99355 19.7931 9.23829C19.1855 7.0853 17.4731 5.26483 15.3558 4.52091L15.0482 4.41281V3.83625C15.0482 2.89908 14.9065 2.47607 14.4349 2.00447C13.9209 1.49055 13.2085 1.28805 12.5187 1.4598ZM13.3175 2.84755C13.5916 2.98673 13.6809 3.20084 13.6809 3.71839V4.13982H12.9973H12.3136L12.3156 3.70887C12.3178 3.2003 12.3882 3.0276 12.6597 2.86397C12.8779 2.73251 13.0809 2.72743 13.3175 2.84755ZM5.86761 3.84264C5.72141 3.93859 5.16967 4.53779 4.86304 4.93368C3.71888 6.41084 2.96187 8.33334 2.79101 10.1958C2.69188 11.2762 2.74917 11.5563 3.10625 11.7376C3.33404 11.8533 3.51889 11.8533 3.74668 11.7376C3.98786 11.6151 4.1101 11.3734 4.1101 11.019C4.1101 10.6148 4.19423 9.86658 4.29704 9.3566C4.58253 7.94036 5.33543 6.42881 6.28171 5.37202C6.86247 4.72351 6.89023 4.67991 6.88987 4.41658C6.88955 4.15674 6.79493 3.97642 6.58752 3.84033C6.41105 3.72452 6.04586 3.72569 5.86761 3.84264ZM19.407 3.84033C19.1986 3.97705 19.105 4.15656 19.1047 4.4198C19.1043 4.68064 19.1132 4.69443 19.7337 5.39615C20.6732 6.45861 21.4148 7.95415 21.6975 9.3566C21.8003 9.86658 21.8844 10.6148 21.8844 11.019C21.8844 11.495 22.1663 11.8289 22.5681 11.8289C22.7942 11.8289 23.0568 11.6685 23.16 11.4672C23.2658 11.2607 23.276 10.9821 23.2057 10.2185C23.0304 8.31497 22.25 6.34706 21.0923 4.88936C20.7299 4.43295 20.3026 3.96862 20.1418 3.8563C19.9534 3.7247 19.5951 3.71694 19.407 3.84033ZM13.8176 5.54476C14.4728 5.64497 14.8794 5.77217 15.4811 6.06508C17.0876 6.84728 18.1811 8.24003 18.5817 10.0144C18.6439 10.2902 18.6653 10.7455 18.6945 12.4186C18.7246 14.1423 18.7458 14.5799 18.823 15.0724C19.112 16.915 19.7276 18.5146 20.7117 19.9798C20.893 20.2497 21.0481 20.4859 21.0565 20.5046C21.0649 20.5233 17.4382 20.5387 12.9973 20.5387C8.55632 20.5387 4.92967 20.5234 4.93806 20.5046C4.9464 20.4859 5.10158 20.2497 5.28288 19.9798C6.26193 18.5221 6.88731 16.8981 7.17157 15.0755C7.24868 14.5811 7.26996 14.1401 7.30004 12.4186C7.32921 10.7455 7.35059 10.2902 7.41284 10.0144C7.66875 8.88092 8.18037 7.94816 8.982 7.15376C9.48916 6.65118 9.95375 6.32533 10.6003 6.01868C11.5967 5.54617 12.7326 5.37887 13.8176 5.54476ZM14.9114 21.9272C14.9114 22.0391 14.58 22.5328 14.3878 22.7072C13.5898 23.4311 12.4245 23.4397 11.6274 22.7275C11.4101 22.5334 11.1645 22.1904 11.1077 22.0016L11.077 21.8996H12.9942C14.0487 21.8996 14.9114 21.912 14.9114 21.9272Z" fill="#216DD1"/>
<path d="M21.3056 20.8463H4.69452V20.2427L5.88103 18.432L7.06753 15.4142V11.7927L7.66079 8.1713L10.6271 5.75701L13.0001 5.15344L15.3731 5.75701L17.1529 6.96416L18.3394 8.77487L18.9326 11.7927V15.4142L21.3056 20.8463Z" fill="#216DD1"/>
</svg>
