<svg width="18" height="20" viewBox="0 0 18 20" fill="none" xmlns="http://www.w3.org/2000/svg">
<path fill-rule="evenodd" clip-rule="evenodd" d="M8.5945 0.440241C8.27108 0.51942 8.02898 0.65463 7.7851 0.892318C7.38766 1.27968 7.26959 1.62654 7.26889 2.40856L7.26847 2.88585L6.97121 2.99355C5.16258 3.64878 3.78588 5.09712 3.26944 6.88803C3.0914 7.50541 3.07696 7.66926 3.04469 9.4434C3.01105 11.2915 2.98892 11.5303 2.76956 12.4122C2.53271 13.3644 2.10016 14.3276 1.53471 15.1621C1.287 15.5276 1.06406 15.8043 0.494957 16.4525C0.263107 16.7166 0.346612 17.1397 0.661585 17.2969C0.809237 17.3706 0.882987 17.3726 3.49921 17.3726H6.18524L6.20967 17.4999C6.30996 18.0229 6.77892 18.6983 7.3078 19.0814C7.54204 19.2511 7.96506 19.4511 8.26801 19.5354C8.57841 19.6217 9.33757 19.6335 9.65081 19.5567C10.6171 19.3201 11.4218 18.5979 11.7127 17.7064L11.821 17.3744L14.5018 17.3735C17.1117 17.3726 17.1865 17.3706 17.3341 17.2969C17.4317 17.2482 17.5132 17.1684 17.563 17.0729C17.7076 16.7957 17.6509 16.594 17.3356 16.264C16.356 15.2387 15.5786 13.8198 15.2254 12.4122C15.0067 11.5406 14.9839 11.2944 14.9508 9.4434C14.9189 7.66708 14.905 7.50962 14.7254 6.88397C14.2133 5.10043 12.7701 3.59234 10.9856 2.97608L10.7263 2.88653V2.4089C10.7263 1.63255 10.6069 1.28213 10.2095 0.891453C9.7763 0.46572 9.17582 0.297966 8.5945 0.440241ZM9.2677 1.58986C9.4987 1.70515 9.57399 1.88253 9.57399 2.31127V2.66038H8.99782H8.42165L8.42327 2.30338C8.42515 1.88208 8.48446 1.73901 8.71331 1.60346C8.89722 1.49456 9.06831 1.49035 9.2677 1.58986ZM2.98888 2.4142C2.86566 2.49368 2.40065 2.99006 2.14222 3.31801C1.17791 4.5417 0.539898 6.1343 0.395894 7.67719C0.31235 8.57213 0.360633 8.80418 0.661585 8.95439C0.853564 9.05021 1.00936 9.05021 1.20134 8.95439C1.40461 8.85292 1.50763 8.65267 1.50763 8.3591C1.50763 8.02423 1.57854 7.40444 1.66519 6.98197C1.9058 5.80875 2.54036 4.55658 3.33789 3.68114C3.82736 3.14391 3.85075 3.10779 3.85045 2.88965C3.85018 2.67439 3.77044 2.52502 3.59563 2.41228C3.4469 2.31634 3.13911 2.31732 2.98888 2.4142ZM14.4 2.41228C14.2244 2.52554 14.1455 2.67424 14.1452 2.89231C14.1449 3.10839 14.1524 3.11982 14.6754 3.70113C15.4672 4.58127 16.0922 5.82018 16.3305 6.98197C16.4171 7.40444 16.488 8.02423 16.488 8.3591C16.488 8.75341 16.7255 9.03003 17.0642 9.03003C17.2548 9.03003 17.4761 8.89712 17.563 8.73038C17.6522 8.55932 17.6608 8.32855 17.6016 7.69598C17.4538 6.11908 16.7961 4.48886 15.8204 3.2813C15.5149 2.90321 15.1548 2.51855 15.0193 2.42551C14.8605 2.31649 14.5585 2.31006 14.4 2.41228ZM9.68923 3.82424C10.2414 3.90725 10.5841 4.01262 11.0912 4.25527C12.4452 4.90325 13.3668 6.057 13.7044 7.52687C13.7569 7.75535 13.7749 8.13253 13.7995 9.51856C13.8248 10.9465 13.8427 11.309 13.9078 11.7169C14.1513 13.2434 14.6702 14.5685 15.4996 15.7823C15.6524 16.0059 15.7832 16.2015 15.7902 16.217C15.7973 16.2325 12.7407 16.2452 8.99782 16.2452C5.25495 16.2452 2.19838 16.2326 2.20545 16.217C2.21248 16.2015 2.34327 16.0059 2.49607 15.7823C3.32122 14.5747 3.8483 13.2294 4.08787 11.7195C4.15286 11.3099 4.1708 10.9447 4.19615 9.51856C4.22073 8.13253 4.23875 7.75535 4.29122 7.52687C4.5069 6.58792 4.9381 5.81522 5.61372 5.15713C6.04116 4.74079 6.43272 4.47086 6.97766 4.21683C7.81741 3.8254 8.77477 3.68681 9.68923 3.82424ZM10.6111 17.3955C10.6111 17.4882 10.3318 17.8972 10.1698 18.0416C9.49721 18.6413 8.51507 18.6484 7.8433 18.0585C7.66015 17.8976 7.45319 17.6135 7.40529 17.4571L7.37936 17.3726H8.99525C9.88397 17.3726 10.6111 17.3829 10.6111 17.3955Z" fill="#216DD1"/>
</svg>
