<svg width="16" height="16" viewBox="0 0 16 16" fill="none" xmlns="http://www.w3.org/2000/svg">
<path fill-rule="evenodd" clip-rule="evenodd" d="M7.4879 0.919166C6.44107 1.02595 5.67843 1.2374 4.84112 1.65301C3.43394 2.35153 2.32936 3.4634 1.63393 4.88148C1.28689 5.58907 1.08974 6.22296 0.96559 7.0304C0.896887 7.47709 0.896887 8.52465 0.96559 8.97135C1.16862 10.2917 1.69206 11.492 2.4952 12.4789C3.12396 13.2516 3.93525 13.8981 4.84112 14.3484C5.53409 14.6929 6.27667 14.9244 7.04411 15.0351C7.54767 15.1078 8.5276 15.1008 9.04114 15.0209C9.81826 14.8999 10.4203 14.7089 11.1491 14.3519C12.8457 13.521 14.1334 12.0426 14.7398 10.2294C14.9933 9.47131 15.0855 8.87713 15.0855 8.00087C15.0855 7.12461 14.9933 6.53043 14.7398 5.77235C14.1334 3.95917 12.8457 2.48072 11.1491 1.6498C10.1313 1.15133 9.25524 0.938215 8.1397 0.91778C7.84223 0.912317 7.54892 0.912955 7.4879 0.919166ZM8.91632 1.74903C11.4532 2.13185 13.5083 3.98449 14.1284 6.44747C14.272 7.01797 14.3096 7.34028 14.3096 8.00087C14.3096 8.86654 14.1861 9.54745 13.894 10.2923C13.0621 12.414 11.1842 13.9103 8.91632 14.2585C8.47398 14.3265 7.52806 14.3265 7.08572 14.2585C5.27886 13.9811 3.7067 12.9768 2.71526 11.4669C1.65101 9.84602 1.39387 7.84659 2.01128 5.99348C2.63147 4.13214 4.07127 2.68008 5.94226 2.02903C6.40837 1.86685 6.98423 1.74601 7.5295 1.69599C7.77666 1.67331 8.63114 1.706 8.91632 1.74903ZM7.64045 3.32872V4.00805H8.00102H8.3616V3.32872V2.64939H8.00102H7.64045V3.32872ZM4.23549 3.93208L3.97946 4.18909L4.45822 4.66712L4.93698 5.14515L5.19301 4.88814L5.44905 4.63113L4.97029 4.1531L4.49153 3.67507L4.23549 3.93208ZM11.2803 4.43143L10.8022 4.91004L11.0592 5.166L11.3163 5.42196L11.7945 4.94334L12.2727 4.46473L12.0156 4.20878L11.7585 3.95282L11.2803 4.43143ZM5.78236 6.00355C5.83561 6.07168 6.30072 6.65188 6.81593 7.2929C7.50856 8.15468 7.76027 8.48727 7.7819 8.56929C7.82775 8.74318 7.93656 8.87874 8.0928 8.95657C8.26923 9.04447 8.41707 9.0458 8.59735 8.96114C8.76045 8.88456 8.81034 8.8336 8.88645 8.66584C8.96253 8.49814 8.95895 8.34664 8.87491 8.17803C8.79148 8.01069 8.68373 7.92615 8.47218 7.86212C8.34171 7.82264 8.09544 7.65383 7.09623 6.91907C6.42684 6.42684 5.83561 5.99163 5.78236 5.95189L5.68553 5.87969L5.78236 6.00355ZM2.84204 7.26608V7.64141L3.51465 7.63398L4.18726 7.62654V7.26608V6.90562L3.51465 6.89819L2.84204 6.89076V7.26608ZM12.0228 7.26608V7.64041H12.7023H13.3819V7.26608V6.89176H12.7023H12.0228V7.26608ZM4.15206 9.89383L3.67389 10.3724L3.93098 10.6284L4.18807 10.8844L4.66624 10.4057L5.14442 9.92713L4.88733 9.67117L4.63024 9.41522L4.15206 9.89383ZM11.2943 9.8244L11.0523 10.0674L11.5376 10.552L12.0229 11.0366L12.2792 10.7804L12.5354 10.5242L12.0645 10.0528C11.8054 9.79351 11.5806 9.58136 11.5649 9.58136C11.5492 9.58136 11.4274 9.69072 11.2943 9.8244ZM5.86532 12.0353V12.9919H6.44778H7.03025V12.0353V11.0787H6.44778H5.86532V12.0353ZM7.61929 12.0283L7.62658 12.978L8.20211 12.9855L8.77764 12.993V12.0358V11.0787H8.19482H7.61199L7.61929 12.0283ZM9.36011 12.0353V12.9919H9.9287H10.4973V12.0353V11.0787H9.9287H9.36011V12.0353Z" fill="#7C8DB5"/>
</svg>
