<svg width="24" height="24" viewBox="0 0 24 24" fill="none" xmlns="http://www.w3.org/2000/svg">
<path fill-rule="evenodd" clip-rule="evenodd" d="M3.09126 4.63547C2.97542 4.65724 2.72782 4.74869 2.54105 4.83867C2.06991 5.06566 1.69636 5.43835 1.4724 5.90488C1.25761 6.35217 1.2168 6.59971 1.2168 7.45443C1.2168 8.03928 1.22809 8.17078 1.28297 8.22568C1.34283 8.28547 2.37361 8.29183 12.0002 8.29183C21.6268 8.29183 22.6576 8.28547 22.7174 8.22568C22.7723 8.17078 22.7836 8.03928 22.7836 7.45443C22.7836 6.59959 22.7428 6.35222 22.5279 5.9045C22.2197 5.26268 21.5593 4.75564 20.8698 4.63151C20.5474 4.57344 3.40107 4.57728 3.09126 4.63547ZM1.28297 9.70537C1.22379 9.76453 1.2168 10.1674 1.2168 13.5083C1.2168 15.9759 1.23209 17.3298 1.26183 17.4948C1.33706 17.9123 1.59704 18.3937 1.9197 18.7131C2.24248 19.0326 2.7202 19.2889 3.1306 19.3628C3.48072 19.4259 20.5197 19.4259 20.8698 19.3628C21.2875 19.2876 21.7691 19.0277 22.0886 18.7052C22.4083 18.3825 22.6647 17.905 22.7386 17.4948C22.7683 17.3298 22.7836 15.9759 22.7836 13.5083C22.7836 10.1674 22.7766 9.76453 22.7174 9.70537C22.6576 9.64558 21.6268 9.63922 12.0002 9.63922C2.37361 9.63922 1.34283 9.64558 1.28297 9.70537ZM6.2976 14.1261C6.56663 14.3272 6.58744 14.392 6.58744 15.0288C6.58744 15.5523 6.57851 15.6241 6.50058 15.7284C6.29962 15.9974 6.23466 16.0183 5.59756 16.0183C5.07389 16.0183 5.00207 16.0094 4.89769 15.9315C4.64491 15.7428 4.60885 15.6499 4.59331 15.1477C4.57575 14.5798 4.60005 14.4378 4.74415 14.2666C4.92717 14.0492 5.04963 14.0169 5.6473 14.0287C6.11112 14.0379 6.19671 14.0507 6.2976 14.1261Z" fill="#7C8DB5"/>
</svg>
