<svg width="20" height="20" viewBox="0 0 20 20" fill="none" xmlns="http://www.w3.org/2000/svg">
<path fill-rule="evenodd" clip-rule="evenodd" d="M2.57609 3.86291C2.47956 3.88105 2.27323 3.95726 2.11758 4.03225C1.72496 4.22141 1.41368 4.53197 1.22704 4.92075C1.04805 5.2935 1.01404 5.49978 1.01404 6.21204C1.01404 6.69942 1.02345 6.809 1.06918 6.85476C1.11906 6.90458 1.97805 6.90988 10.0002 6.90988C18.0224 6.90988 18.8814 6.90458 18.9312 6.85476C18.977 6.809 18.9864 6.69942 18.9864 6.21204C18.9864 5.49968 18.9524 5.29353 18.7733 4.92044C18.5164 4.38559 17.9661 3.96305 17.3916 3.85961C17.1228 3.81122 2.83427 3.81442 2.57609 3.86291ZM1.06918 8.08783C1.01987 8.13713 1.01404 8.47286 1.01404 11.2569C1.01404 13.3133 1.02678 14.4415 1.05156 14.579C1.11426 14.9269 1.33091 15.3281 1.59979 15.5943C1.86878 15.8605 2.26687 16.0741 2.60887 16.1357C2.90064 16.1883 17.0998 16.1883 17.3916 16.1357C17.7396 16.073 18.141 15.8565 18.4072 15.5877C18.6736 15.3188 18.8873 14.9209 18.9489 14.579C18.9736 14.4415 18.9864 13.3133 18.9864 11.2569C18.9864 8.47286 18.9806 8.13713 18.9312 8.08783C18.8814 8.03801 18.0224 8.03271 10.0002 8.03271C1.97805 8.03271 1.11906 8.03801 1.06918 8.08783ZM5.24804 11.7718C5.47223 11.9393 5.48958 11.9934 5.48958 12.524C5.48958 12.9602 5.48213 13.0201 5.41719 13.107C5.24972 13.3312 5.19559 13.3486 4.66467 13.3486C4.22828 13.3486 4.16843 13.3412 4.08145 13.2762C3.8708 13.119 3.84075 13.0416 3.8278 12.6231C3.81316 12.1498 3.83342 12.0315 3.9535 11.8888C4.10602 11.7077 4.20806 11.6808 4.70613 11.6906C5.09264 11.6983 5.16397 11.709 5.24804 11.7718Z" fill="#216DD1"/>
</svg>
