<svg width="14" height="14" viewBox="0 0 14 14" fill="none" xmlns="http://www.w3.org/2000/svg">
<path fill-rule="evenodd" clip-rule="evenodd" d="M7.48047 0.5C7.48047 0.223858 7.25661 0 6.98047 0C6.70433 0 6.48047 0.223858 6.48047 0.5V6.48047H0.5C0.223858 6.48047 0 6.70433 0 6.98047C0 7.25661 0.223858 7.48047 0.5 7.48047H6.48047V13.46C6.48047 13.7361 6.70433 13.96 6.98047 13.96C7.25661 13.96 7.48047 13.7361 7.48047 13.46V7.48047H13.46C13.7361 7.48047 13.96 7.25661 13.96 6.98047C13.96 6.70433 13.7361 6.48047 13.46 6.48047H7.48047V0.5Z" fill="#216DD1"/>
</svg>
