<svg width="24" height="24" viewBox="0 0 24 24" fill="none" xmlns="http://www.w3.org/2000/svg">
<path fill-rule="evenodd" clip-rule="evenodd" d="M10.7768 1.84923C10.579 1.89937 10.3306 2.04333 10.1769 2.19697C9.91998 2.45384 9.85509 2.66143 9.73741 3.60294C9.67899 4.07058 9.61496 4.47458 9.59515 4.50078C9.57529 4.52694 9.49351 4.56891 9.41333 4.59396C9.33318 4.61905 9.08348 4.72049 8.85849 4.81942L8.44942 4.99923L8.30247 4.88294C7.61379 4.33781 7.09383 3.95267 6.94418 3.8768C6.7002 3.75313 6.31456 3.72824 6.00787 3.81634C5.78065 3.8816 5.74086 3.91563 4.85237 4.80378C3.96388 5.69193 3.92984 5.73171 3.86455 5.95884C3.77618 6.26617 3.80128 6.65119 3.92555 6.89479C3.97567 6.99305 4.23156 7.35036 4.49425 7.68881C4.75693 8.02726 4.98867 8.32625 5.00925 8.35325C5.03443 8.38636 4.9882 8.53516 4.86738 8.80981C4.76876 9.03392 4.66757 9.28289 4.64247 9.363C4.61741 9.44316 4.57543 9.52486 4.54925 9.54463C4.52304 9.56441 4.11742 9.62908 3.64778 9.68839C2.70337 9.80761 2.49982 9.87117 2.24429 10.1266C2.16426 10.2066 2.04964 10.3652 1.98959 10.4791L1.88037 10.6862V11.9567V13.2271L1.98443 13.4489C2.04166 13.5709 2.15628 13.7384 2.23913 13.8213C2.50189 14.0839 2.70508 14.1479 3.65107 14.2661C4.11889 14.3245 4.52304 14.3885 4.54925 14.4083C4.57543 14.4281 4.61741 14.5099 4.64247 14.59C4.66757 14.6702 4.76876 14.9191 4.86738 15.1432C4.9882 15.4179 5.03443 15.5667 5.00925 15.5998C4.98867 15.6268 4.75693 15.9258 4.49425 16.2642C4.23156 16.6027 3.97567 16.96 3.92555 17.0582C3.80088 17.3027 3.7761 17.6872 3.86522 17.9942C3.93064 18.2195 3.96999 18.2662 4.79347 19.0964C5.81934 20.1306 5.88435 20.174 6.40801 20.1741C6.70806 20.1742 6.79397 20.1591 6.94294 20.0799C7.08362 20.0052 7.62757 19.6005 8.40426 18.9926C8.43925 18.9652 8.54724 18.9957 8.7617 19.0935C8.9307 19.1705 9.19036 19.2757 9.33866 19.327C9.53327 19.3945 9.61294 19.4426 9.62489 19.4999C9.63403 19.5435 9.68737 19.9448 9.74341 20.3917C9.85691 21.296 9.923 21.5022 10.1823 21.7615C10.2652 21.8443 10.4329 21.9589 10.5549 22.0161L10.7768 22.1201H12.0278H13.2789L13.5007 22.0161C13.6228 21.9589 13.7904 21.8443 13.8733 21.7615C14.1362 21.4986 14.2001 21.2959 14.3178 20.3501C14.376 19.8825 14.4431 19.4798 14.4668 19.4554C14.4906 19.4309 14.6441 19.3612 14.808 19.3006C14.9718 19.2399 15.2122 19.1373 15.3421 19.0725C15.6232 18.9325 15.5295 18.8903 16.337 19.5201C16.6647 19.7756 17.0132 20.0256 17.1115 20.0757C17.356 20.2003 17.7407 20.2251 18.0478 20.136C18.2732 20.0706 18.3199 20.0313 19.1504 19.2081C20.185 18.1827 20.2285 18.1177 20.2286 17.5942C20.2287 17.1448 20.199 17.0858 19.5614 16.2642C19.2987 15.9258 19.067 15.6268 19.0464 15.5998C19.0212 15.5667 19.0675 15.4179 19.1883 15.1432C19.2869 14.9191 19.3881 14.6702 19.4132 14.59C19.4383 14.5099 19.4802 14.4281 19.5064 14.4083C19.5326 14.3885 19.9368 14.3245 20.4046 14.2661C21.3492 14.1481 21.5428 14.0869 21.8134 13.8209C21.8984 13.7374 22.0146 13.5696 22.0716 13.4481L22.1753 13.2271V11.9765V10.7259L22.0712 10.5042C22.014 10.3822 21.8994 10.2146 21.8165 10.1317C21.5538 9.86911 21.3506 9.80511 20.4046 9.68696C19.9368 9.62856 19.5326 9.56456 19.5064 9.54475C19.4802 9.5249 19.4383 9.44316 19.4132 9.363C19.3881 9.28289 19.2869 9.03392 19.1883 8.80981C19.0675 8.53516 19.0212 8.38636 19.0464 8.35325C19.067 8.32625 19.2987 8.02726 19.5614 7.68881C19.8241 7.35036 20.08 6.99305 20.1301 6.89479C20.2544 6.65119 20.2795 6.26617 20.1911 5.95884C20.1258 5.73171 20.0918 5.69193 19.2033 4.80378C18.3148 3.91563 18.275 3.8816 18.0478 3.81634C17.7404 3.728 17.3552 3.75309 17.1115 3.87732C17.0132 3.92742 16.6647 4.17746 16.337 4.43297C15.5295 5.06271 15.6232 5.02059 15.3421 4.88052C15.2122 4.81577 14.9718 4.71314 14.808 4.65248C14.6441 4.59182 14.4906 4.52214 14.4668 4.49768C14.4431 4.47319 14.376 4.07058 14.3178 3.60294C14.2001 2.65719 14.1362 2.45439 13.8733 2.19153C13.7904 2.10872 13.6228 1.99414 13.5007 1.93693L13.2789 1.83291L12.0874 1.82597C11.4321 1.82219 10.8423 1.83264 10.7768 1.84923ZM12.4662 7.76801C12.9567 7.82419 13.3749 7.94131 13.7943 8.13989C14.7397 8.58756 15.4182 9.26419 15.8606 10.2005C16.6239 11.8161 16.2672 13.7517 14.9762 15.0004C13.6973 16.2373 11.8368 16.5563 10.2556 15.8099C9.77534 15.5832 9.45177 15.3604 9.07951 15.0004C7.78846 13.7517 7.43181 11.8161 8.19511 10.2005C8.89265 8.72417 10.3301 7.78449 11.9683 7.73407C12.0556 7.73137 12.2797 7.74666 12.4662 7.76801Z" fill="#7C8DB5"/>
</svg>
