<svg width="24" height="24" viewBox="0 0 24 24" fill="none" xmlns="http://www.w3.org/2000/svg">
<path fill-rule="evenodd" clip-rule="evenodd" d="M8.01913 4.9339C7.75162 4.9613 7.34361 5.10018 6.99391 5.28286C6.71898 5.42649 6.51466 5.60168 5.61785 6.46296L4.56465 7.47439L4.51713 7.26524C4.40103 6.75401 4.18714 6.60874 3.55358 6.6108C2.91682 6.6129 2.39688 6.79651 2.17314 7.09834C2.05851 7.25295 2.03521 7.53861 2.12082 7.74007C2.25963 8.06663 2.77241 8.46718 3.25469 8.62571C3.32133 8.64759 3.22406 8.76446 2.68188 9.31369C1.97464 10.0302 1.75325 10.3445 1.50457 10.9853C1.24191 11.6622 1.21659 11.9012 1.2168 13.6997C1.21697 15.4857 1.23879 15.7004 1.46704 16.1648C1.53617 16.3054 1.65687 16.5044 1.73526 16.607L1.87783 16.7935L1.89733 17.4695C1.91414 18.0522 1.92947 18.1715 2.0083 18.3342C2.13388 18.5933 2.33108 18.7848 2.60571 18.9141C2.83366 19.0215 2.85275 19.0233 3.78529 19.0233C4.69154 19.0233 4.74285 19.0189 4.95336 18.9238C5.19303 18.8156 5.48628 18.5287 5.57475 18.3158C5.60542 18.242 5.64413 18.0537 5.66069 17.8975L5.69085 17.6135H12.0002H18.3096L18.3397 17.8975C18.3563 18.0537 18.395 18.242 18.4257 18.3158C18.5141 18.5287 18.8074 18.8156 19.047 18.9238C19.2576 19.0189 19.3089 19.0233 20.2151 19.0233C21.1477 19.0233 21.1667 19.0215 21.3947 18.9141C21.6693 18.7848 21.8665 18.5933 21.9921 18.3342C22.0709 18.1715 22.0863 18.0522 22.1031 17.4695L22.1226 16.7935L22.2651 16.607C22.3435 16.5044 22.4642 16.3054 22.5334 16.1648C22.7616 15.7004 22.7834 15.4857 22.7836 13.6997C22.7838 11.9012 22.7585 11.6622 22.4958 10.9853C22.2472 10.3445 22.0258 10.0302 21.3185 9.31369C20.7764 8.76446 20.6791 8.64759 20.7457 8.62571C21.228 8.46718 21.7408 8.06663 21.8796 7.74007C22.1464 7.11222 21.5147 6.61434 20.4468 6.6108C19.8133 6.60874 19.5994 6.75401 19.4833 7.26524L19.4358 7.47439L18.3826 6.46296C17.2608 5.38567 17.0772 5.25109 16.4177 5.02228L16.1498 4.92932L12.1687 4.923C9.97913 4.91951 8.11181 4.92439 8.01913 4.9339ZM15.965 6.08282C16.4699 6.17696 16.6149 6.28726 18.025 7.6503L19.3419 8.92324L15.6711 8.93397C13.6521 8.93991 10.3483 8.93991 8.32936 8.93397L4.65851 8.92324L5.97543 7.6503C7.36345 6.3086 7.53314 6.17743 7.99807 6.08674C8.27 6.03367 15.6819 6.03005 15.965 6.08282ZM3.64395 10.7576C4.2286 10.9355 5.19202 11.5113 5.67392 11.9708C6.56282 12.8184 5.98983 13.1892 3.86053 13.1446C3.12156 13.1291 3.02791 13.1187 2.82566 13.0292C2.55225 12.9082 2.25955 12.5948 2.16724 12.3243C1.93369 11.6395 2.33647 10.8753 3.01511 10.7157C3.26 10.658 3.33275 10.6629 3.64395 10.7576ZM21.2051 10.7922C21.7461 11.0328 22.0341 11.7353 21.8332 12.3243C21.7409 12.5948 21.4482 12.9082 21.1748 13.0292C20.9725 13.1187 20.8788 13.1291 20.1399 13.1446C18.0093 13.1892 17.4386 12.8199 18.328 11.9719C18.8038 11.5182 19.7132 10.9675 20.3149 10.7686C20.6533 10.6568 20.9161 10.6638 21.2051 10.7922ZM16.9285 12.4688C16.9264 13.1595 16.51 13.9383 15.9966 14.2119L15.8128 14.3099H12.0002C8.33568 14.3099 8.18191 14.3068 8.04019 14.23C7.77968 14.0889 7.62561 13.9499 7.47012 13.716C7.26795 13.4117 7.11064 12.9485 7.08225 12.574L7.05908 12.2689H11.9941H16.9292L16.9285 12.4688ZM5.91274 15.4963C6.30664 15.9499 6.63523 16.3372 6.64294 16.357C6.65069 16.3768 6.01903 16.393 5.23929 16.393H3.82156L3.51129 16.264C2.98107 16.0435 2.64729 15.661 2.64826 15.2751C2.64847 15.184 2.69498 15.0101 2.75164 14.8886L2.8546 14.6676L4.02558 14.6697L5.19657 14.6717L5.91274 15.4963ZM21.2488 14.8886C21.5079 15.4445 21.2241 15.9584 20.4891 16.264L20.1789 16.393H18.7611C17.9814 16.393 17.3497 16.3775 17.3575 16.3585C17.3652 16.3394 17.6938 15.9524 18.0877 15.4984L18.8038 14.6729L19.9748 14.6703L21.1458 14.6676L21.2488 14.8886ZM16.53 15.3304C16.4751 15.6251 16.3318 15.887 16.1227 16.0748C15.75 16.4095 15.9638 16.393 12.0002 16.393C8.03657 16.393 8.25037 16.4095 7.87767 16.0748C7.66858 15.887 7.52531 15.6251 7.47042 15.3304L7.44101 15.1726H12.0002H16.5594L16.53 15.3304Z" fill="#216DD1"/>
</svg>
