<svg width="26" height="26" viewBox="0 0 26 26" fill="none" xmlns="http://www.w3.org/2000/svg">
<path fill-rule="evenodd" clip-rule="evenodd" d="M8.55572 2.12543L8.40489 2.25081V3.2891V4.3274L8.55572 4.45278L8.70655 4.57816H12.9799C17.6214 4.57816 17.4434 4.58732 17.563 4.34304C17.6396 4.18668 17.6396 2.39153 17.563 2.23517C17.4434 1.99089 17.6214 2.00004 12.9799 2.00004H8.70655L8.55572 2.12543ZM5.56954 3.35712C4.89358 3.52621 4.38345 3.96848 4.11675 4.61658L4.01759 4.85746L4.00369 13.5156C3.99349 19.889 4.00379 22.2419 4.04272 22.4316C4.19743 23.1857 4.83954 23.7939 5.64777 23.9521C5.8216 23.9861 7.95586 24 13.0157 24C19.2663 24 20.1721 23.9919 20.4106 23.9341C21.1035 23.7662 21.6127 23.3299 21.8833 22.6725L21.9824 22.4316L21.9963 13.7735C22.0065 7.40013 21.9962 5.04725 21.9573 4.85746C21.8772 4.46709 21.6986 4.15759 21.3854 3.86609C20.9123 3.42592 20.4783 3.2891 19.5556 3.2891H19.0037V3.84907C19.0037 4.30136 18.9853 4.4597 18.9082 4.67265C18.7312 5.16146 18.4193 5.48235 17.8975 5.71241L17.5951 5.84574L13.1159 5.85751C8.73407 5.86903 8.62993 5.8674 8.32929 5.78245C7.7842 5.6284 7.31624 5.21595 7.12795 4.72366C7.05466 4.5321 7.02543 4.3274 7.00733 3.87992L6.9834 3.2891L6.40105 3.29194C6.04702 3.29366 5.72102 3.31923 5.56954 3.35712ZM11.0839 8.50722C11.3468 8.6094 11.5112 8.92041 11.4545 9.20834C11.4273 9.3464 11.2548 9.52618 10.2371 10.477C8.9702 11.6607 8.89723 11.7109 8.53632 11.6483C8.38882 11.6227 8.25955 11.5252 7.77395 11.0734C7.28839 10.6216 7.1836 10.5013 7.15608 10.3641C7.05956 9.88265 7.55117 9.45678 8.03271 9.60468C8.12345 9.63253 8.31335 9.7537 8.45476 9.87392L8.71181 10.0925L9.55126 9.31696C10.0129 8.89046 10.4323 8.52041 10.4831 8.49472C10.6137 8.42859 10.8969 8.43452 11.0839 8.50722ZM18.5269 9.84634C18.9269 10.1238 18.9269 10.6341 18.5269 10.9115C18.3984 11.0007 18.3585 11.0022 15.7412 11.0138L13.0858 11.0255L12.9044 10.9307C12.7133 10.8307 12.5382 10.5669 12.5382 10.3789C12.5382 10.1971 12.7129 9.92858 12.8957 9.82941L13.0693 9.73522L15.7329 9.74558C18.3599 9.75576 18.3984 9.75713 18.5269 9.84634ZM11.114 13.1556C11.2806 13.2336 11.4214 13.4087 11.4561 13.5811C11.5207 13.9015 11.4822 13.9506 10.2814 15.0767C9.65573 15.6636 9.08145 16.1741 9.0053 16.2113C8.79236 16.3153 8.4991 16.2934 8.28902 16.158C8.1906 16.0945 7.91314 15.8537 7.67244 15.623C7.19944 15.1694 7.09664 14.9865 7.15423 14.7008C7.19478 14.4997 7.45137 14.2593 7.66528 14.2219C7.96172 14.1702 8.14498 14.2348 8.43708 14.494L8.70923 14.7355L9.578 13.9281C10.2443 13.3088 10.4833 13.1128 10.6035 13.0872C10.7791 13.0499 10.9321 13.0704 11.114 13.1556ZM18.5269 14.1432C18.9269 14.4207 18.9269 14.9309 18.5269 15.2084C18.3984 15.2976 18.3585 15.299 15.7412 15.3106L13.0858 15.3224L12.9044 15.2275C12.7133 15.1276 12.5382 14.8637 12.5382 14.6758C12.5382 14.494 12.7129 14.2254 12.8957 14.1263L13.0693 14.0321L15.7329 14.0424C18.3599 14.0526 18.3984 14.054 18.5269 14.1432ZM11.114 17.4524C11.2806 17.5305 11.4214 17.7055 11.4561 17.878C11.5207 18.1983 11.4822 18.2474 10.2814 19.3736C9.65573 19.9604 9.08145 20.471 9.0053 20.5082C8.79236 20.6121 8.4991 20.5903 8.28902 20.4548C8.1906 20.3914 7.91314 20.1506 7.67244 19.9198C7.19944 19.4663 7.09664 19.2833 7.15423 18.9977C7.19478 18.7965 7.45137 18.5561 7.66528 18.5188C7.96172 18.4671 8.14498 18.5316 8.43708 18.7909L8.70923 19.0324L9.578 18.2249C10.2443 17.6056 10.4833 17.4097 10.6035 17.3841C10.7791 17.3468 10.9321 17.3672 11.114 17.4524ZM18.4955 18.4191C18.6912 18.5215 18.8651 18.7733 18.8651 18.9542C18.8651 19.165 18.6881 19.4399 18.4926 19.5327C18.3218 19.6138 18.2086 19.6172 15.6982 19.6172C13.0939 19.6172 13.081 19.6168 12.9024 19.5234C12.7133 19.4245 12.5382 19.1597 12.5382 18.9727C12.5382 18.7905 12.7128 18.5223 12.8957 18.4237C13.0684 18.3306 13.0825 18.3301 15.6954 18.3291C18.2856 18.3281 18.3238 18.3294 18.4955 18.4191Z" fill="#216DD1"/>
</svg>
