<svg width="24" height="24" viewBox="0 0 24 24" fill="none" xmlns="http://www.w3.org/2000/svg">
<path fill-rule="evenodd" clip-rule="evenodd" d="M8.66306 1.9378C7.91728 2.03032 7.25639 2.20517 6.618 2.4789C4.72135 3.29218 3.28984 4.71902 2.48322 6.60013C1.58777 8.6883 1.69618 11.2132 2.76635 13.1956L2.94201 13.521L2.42621 15.3823C2.14249 16.4061 1.91721 17.2504 1.9255 17.2587C1.93379 17.267 2.77851 17.0417 3.80264 16.7579L5.6647 16.2421L5.98928 16.4171C6.98009 16.9517 8.12578 17.2529 9.33426 17.2965C12.9569 17.4272 16.1806 14.9971 17.0708 11.4645C17.7357 8.82629 16.9632 6.06093 15.0214 4.12756C13.3419 2.45537 10.998 1.64813 8.66306 1.9378ZM10.0909 5.48723C10.7771 5.63264 11.3906 6.11165 11.7029 6.74578C11.8783 7.10207 11.9391 7.37292 11.9391 7.79833C11.9391 8.20795 11.8862 8.45941 11.7265 8.80809C11.5683 9.15357 11.3854 9.36718 10.7476 9.95154L10.1634 10.4868V10.9385V11.3901H9.59089H9.0184V10.6633V9.9365L9.482 9.5088C10.7202 8.3665 10.7548 8.31988 10.7548 7.79833C10.7548 7.41961 10.647 7.17501 10.3705 6.92651C9.91081 6.5133 9.27097 6.5133 8.81123 6.92651C8.58579 7.12911 8.42711 7.4277 8.42656 7.65031L8.42616 7.79833H7.83393H7.2417L7.24217 7.61084C7.24363 7.02613 7.64457 6.29688 8.1781 5.90861C8.74937 5.49284 9.42001 5.3451 10.0909 5.48723ZM18.4609 10.2948C18.087 14.6724 14.6742 18.0877 10.3016 18.46C9.99756 18.4859 9.74349 18.5111 9.73697 18.516C9.71127 18.5355 10.1377 19.2186 10.3578 19.5106C10.6617 19.9138 11.3571 20.5806 11.8032 20.8965C12.2281 21.1975 13.0463 21.6062 13.5488 21.7687C14.2473 21.9946 14.7198 22.0642 15.5527 22.0642C16.1739 22.0642 16.3798 22.0489 16.7504 21.9749C17.3585 21.8534 17.9471 21.6548 18.4626 21.397L18.8933 21.1817L20.4565 21.6151C21.3163 21.8535 22.0263 22.0419 22.0344 22.0339C22.0424 22.0259 21.8539 21.316 21.6154 20.4565L21.1819 18.8937L21.3973 18.4632C21.6552 17.9479 21.8539 17.3595 21.9753 16.7515C22.0493 16.3811 22.0647 16.1752 22.0647 15.5542C22.0647 14.7215 21.995 14.2492 21.7691 13.5509C21.6066 13.0486 21.1977 12.2307 20.8967 11.8059C20.5806 11.3599 19.9136 10.6647 19.5103 10.3608C19.261 10.173 18.5667 9.73236 18.52 9.73236C18.5139 9.73236 18.4873 9.98545 18.4609 10.2948ZM10.1634 13.1663V13.7583H9.59089H9.0184V13.1663V12.5742H9.59089H10.1634V13.1663Z" fill="#7C8DB5"/>
</svg>
