<svg width="14" height="14" viewBox="0 0 14 14" fill="none" xmlns="http://www.w3.org/2000/svg">
<path fill-rule="evenodd" clip-rule="evenodd" d="M2.6378 0.0905625C2.12283 0.387 0.548378 2.20459 0.0997355 3.02059C-0.00654091 3.21387 -0.0106669 3.23278 0.0095569 3.43191C0.0775738 4.10053 0.374741 5.06078 0.784968 5.9375C1.23717 6.904 2.00186 8.06038 2.87211 9.09375C3.31591 9.62075 4.35601 10.6631 4.87273 11.0987C6.74273 12.6751 8.6261 13.6611 10.3235 13.9524C10.4762 13.9786 10.6438 14 10.696 14C10.8753 14 11.3694 13.6823 12.1153 13.0874C13.0786 12.3192 13.8366 11.569 13.9665 11.2554C14.0705 11.0045 13.8663 10.7679 13.1188 10.2731C12.0345 9.55547 11.0247 8.98778 10.5475 8.82763C10.3242 8.75269 10.3067 8.75119 10.1948 8.79784C10.044 8.86072 9.94452 8.9565 9.51401 9.45312C9.32031 9.67656 9.09906 9.92006 9.02233 9.99422L8.88285 10.1291L8.68293 10.0774C8.03155 9.90919 7.15183 9.44972 6.42137 8.89625C6.09823 8.65137 5.55406 8.12472 5.25327 7.76562C4.68631 7.08884 4.14852 6.11159 3.93253 5.36569L3.86198 5.12197L4.03134 4.94856C4.12449 4.85319 4.35542 4.64419 4.54453 4.48413C4.9807 4.11497 5.13886 3.95128 5.19906 3.80666C5.24342 3.70009 5.24226 3.67609 5.18369 3.4865C5.00855 2.91953 3.7287 0.764844 3.26621 0.25825C3.00905 -0.0234375 2.89068 -0.055 2.6378 0.0905625ZM7.49839 0.5V1L7.64686 1.00025C8.29787 1.00138 9.16252 1.21137 9.8339 1.53144C10.9806 2.07809 11.847 2.92547 12.4057 4.04688C12.7558 4.74959 12.9047 5.27866 12.975 6.07031L13.0131 6.5H13.5066H14V6.36269C14 6.12256 13.9391 5.58962 13.8711 5.23438C13.686 4.26816 13.1709 3.16572 12.558 2.42456C11.4381 1.07016 9.93743 0.246813 8.22328 0.0463438C8.00532 0.0208438 7.75304 0 7.66268 0H7.49839V0.5ZM7.49839 2.99103V3.491L7.74526 3.51159C8.47444 3.57241 9.10753 3.87575 9.63954 4.41922C10.1453 4.93587 10.4269 5.54653 10.4875 6.25781L10.5081 6.5H11.0038H11.4994V6.37119C11.4994 5.94009 11.3076 5.17631 11.0909 4.74466C10.7096 3.98491 10.0328 3.30072 9.29571 2.92978C8.831 2.69594 8.31028 2.55231 7.78299 2.5125L7.49839 2.49103V2.99103Z" fill="#216DD1"/>
</svg>
