<svg width="12" height="12" viewBox="0 0 12 12" fill="none" xmlns="http://www.w3.org/2000/svg">
<path fill-rule="evenodd" clip-rule="evenodd" d="M5.26729 1.13329C5.12803 1.17609 4.99104 1.26911 4.89136 1.38857C4.7261 1.58663 4.66275 1.7894 4.66275 2.12039V2.326L3.84665 2.33165L3.03054 2.33727L2.91871 2.39784C2.76311 2.48209 2.66615 2.59059 2.59085 2.76472L2.52832 2.90929V3.59298C2.52832 4.25365 2.52948 4.27845 2.56284 4.32954C2.63007 4.43251 2.68021 4.46016 2.81377 4.46785L2.93847 4.47507L2.9388 4.54472C2.94016 4.8263 3.17598 10.1437 3.19009 10.2107C3.25687 10.528 3.51687 10.8104 3.80562 10.8792C3.93045 10.909 8.07356 10.909 8.19839 10.8792C8.48714 10.8104 8.74714 10.528 8.81391 10.2107C8.82803 10.1437 9.06385 4.8263 9.06521 4.54472L9.06554 4.47507L9.19024 4.46785C9.3238 4.46016 9.37394 4.43251 9.44117 4.32954C9.47453 4.27845 9.47569 4.25365 9.47569 3.59298V2.90929L9.41316 2.76472C9.33786 2.59059 9.2409 2.48209 9.0853 2.39784L8.97347 2.33727L8.15736 2.33165L7.34126 2.326V2.12039C7.34126 1.7894 7.27791 1.58663 7.11265 1.38857C7.01048 1.26615 6.87533 1.17575 6.72952 1.13233C6.58992 1.09077 5.40309 1.09153 5.26729 1.13329ZM6.68194 1.76439C6.78219 1.84999 6.79673 1.89256 6.80284 2.11855L6.80852 2.3277H6.00348H5.19845V2.14716C5.19845 1.95324 5.21324 1.88493 5.27072 1.8134C5.34748 1.71786 5.36375 1.71585 6.02173 1.72055C6.61262 1.72476 6.63748 1.72643 6.68194 1.76439ZM8.90726 2.98702C8.94836 3.03397 8.94836 3.03403 8.94836 3.44627V3.85854H6.002H3.05565V3.44627C3.05565 3.03403 3.05565 3.03397 3.09675 2.98702L3.13783 2.94004H6.002H8.86618L8.90726 2.98702ZM8.53009 4.50436C8.53127 4.66219 8.30915 9.90454 8.29747 9.99482C8.27925 10.1355 8.24381 10.1975 8.15207 10.2495C8.08496 10.2875 8.05533 10.2881 6.002 10.2881C3.94868 10.2881 3.91905 10.2875 3.85194 10.2495C3.7602 10.1975 3.72476 10.1355 3.70654 9.99482C3.69486 9.90454 3.47274 4.66219 3.47392 4.50436C3.47415 4.47262 3.6058 4.47088 6.002 4.47088C8.39821 4.47088 8.52986 4.47262 8.53009 4.50436ZM4.5531 5.10906C4.48525 5.14425 4.41528 5.24194 4.40329 5.31817C4.39797 5.35208 4.39579 6.30271 4.39845 7.43069C4.40324 9.46791 4.40351 9.48192 4.43779 9.53441C4.50338 9.63483 4.55689 9.66615 4.66275 9.66615C4.76862 9.66615 4.82212 9.63481 4.88771 9.53441C4.92208 9.48178 4.92223 9.47271 4.92223 7.37947C4.92223 5.28622 4.92208 5.27715 4.88771 5.22453C4.86873 5.19546 4.83351 5.15487 4.80945 5.13434C4.75404 5.08706 4.62087 5.07393 4.5531 5.10906ZM5.89235 5.10906C5.8245 5.14425 5.75453 5.24194 5.74254 5.31817C5.73722 5.35208 5.73504 6.30271 5.7377 7.43069C5.74249 9.46791 5.74276 9.48192 5.77704 9.53441C5.84263 9.63483 5.89614 9.66615 6.002 9.66615C6.10787 9.66615 6.16138 9.63481 6.22697 9.53441C6.26133 9.48178 6.26148 9.47271 6.26148 7.37947C6.26148 5.28622 6.26133 5.27715 6.22697 5.22453C6.20798 5.19546 6.17276 5.15487 6.1487 5.13434C6.09329 5.08706 5.96012 5.07393 5.89235 5.10906ZM7.23161 5.10906C7.16376 5.14425 7.09378 5.24194 7.08179 5.31817C7.07647 5.35208 7.07429 6.30271 7.07696 7.43069C7.08174 9.46791 7.08201 9.48192 7.1163 9.53441C7.18189 9.63483 7.23539 9.66615 7.34126 9.66615C7.44712 9.66615 7.50063 9.63481 7.56622 9.53441C7.60059 9.48178 7.60074 9.47271 7.60074 7.37947C7.60074 5.28622 7.60059 5.27715 7.56622 5.22453C7.54723 5.19546 7.51201 5.15487 7.48796 5.13434C7.43254 5.08706 7.29937 5.07393 7.23161 5.10906Z" fill="#FF9898"/>
</svg>
