<svg width="20" height="20" viewBox="0 0 20 20" fill="none" xmlns="http://www.w3.org/2000/svg">
<path fill-rule="evenodd" clip-rule="evenodd" d="M10.2586 2.3422C11.2362 2.46093 12.0549 2.85474 12.7347 3.53328C13.3384 4.13587 13.6865 4.77907 13.864 5.62014C13.9386 5.97359 13.9386 6.76501 13.864 7.11846C13.6863 7.96043 13.3372 8.60498 12.7347 9.20394C12.1229 9.81211 11.4543 10.1684 10.5928 10.3454C10.2387 10.4181 9.43705 10.4181 9.0666 10.3452C8.24683 10.1841 7.56762 9.8253 6.95843 9.23139C6.3466 8.63494 5.98222 7.96873 5.80272 7.11846C5.72809 6.76504 5.72809 5.97359 5.80272 5.62014C5.91943 5.06726 6.13578 4.55306 6.44575 4.09185C6.63701 3.80729 7.23046 3.21983 7.512 3.03634C8.00165 2.71723 8.52958 2.49811 9.05019 2.39797C9.295 2.35086 10.0449 2.31625 10.2586 2.3422ZM11.4657 11.361C13.165 11.5641 14.6993 12.5163 15.6871 13.9808C16.2661 14.8393 16.5982 15.8499 16.6572 16.9329C16.6752 17.2641 16.6715 17.3032 16.6114 17.4195C16.5678 17.5038 16.5059 17.5661 16.426 17.6063C16.307 17.6662 16.2606 17.6666 9.83335 17.6666C3.40606 17.6666 3.35971 17.6662 3.24066 17.6063C3.1608 17.5661 3.09892 17.5038 3.05536 17.4195C2.99518 17.3032 2.9915 17.2641 3.00952 16.9329C3.08993 15.456 3.66087 14.1608 4.69874 13.1009C5.68234 12.0965 6.95363 11.4836 8.34048 11.3452C8.8014 11.2992 11.0434 11.3105 11.4657 11.361Z" fill="#216DD1"/>
</svg>
