<svg width="26" height="26" viewBox="0 0 26 26" fill="none" xmlns="http://www.w3.org/2000/svg">
<path fill-rule="evenodd" clip-rule="evenodd" d="M13.3362 3.04475C14.6071 3.1991 15.6714 3.71106 16.555 4.59315C17.3398 5.37653 17.7923 6.21269 18.0231 7.30608C18.1201 7.76557 18.1201 8.7944 18.0231 9.25389C17.7921 10.3485 17.3383 11.1864 16.555 11.965C15.7597 12.7556 14.8905 13.2188 13.7706 13.4489C13.3103 13.5435 12.2681 13.5434 11.7865 13.4487C10.7208 13.2393 9.83784 12.7728 9.04589 12.0007C8.25051 11.2253 7.77682 10.3592 7.54347 9.25389C7.44644 8.79444 7.44644 7.76557 7.54347 7.30608C7.6952 6.58733 7.97645 5.91888 8.37941 5.3193C8.62804 4.94937 9.39953 4.18567 9.76553 3.94714C10.4021 3.53229 11.0884 3.24744 11.7652 3.11725C12.0834 3.05601 13.0583 3.01102 13.3362 3.04475ZM14.9054 14.7692C17.1144 15.0332 19.109 16.271 20.3931 18.1749C21.1459 19.2909 21.5776 20.6047 21.6543 22.0127C21.6777 22.4432 21.6729 22.494 21.5947 22.6452C21.5381 22.7548 21.4576 22.8358 21.3538 22.8881C21.199 22.966 21.1388 22.9665 12.7833 22.9665C4.42782 22.9665 4.36755 22.966 4.21279 22.8881C4.10897 22.8358 4.02853 22.7548 3.9719 22.6452C3.89367 22.494 3.88889 22.4432 3.9123 22.0127C4.01684 20.0927 4.75906 18.409 6.1083 17.0311C7.38697 15.7253 9.03965 14.9285 10.8426 14.7486C11.4418 14.6888 14.3564 14.7036 14.9054 14.7692Z" fill="#216DD1"/>
</svg>
