<svg width="21" height="20" viewBox="0 0 21 20" fill="none" xmlns="http://www.w3.org/2000/svg">
<path fill-rule="evenodd" clip-rule="evenodd" d="M4.08815 2.02484C3.10403 2.13385 2.31614 2.83812 2.06843 3.83016C2.00277 4.09302 2 4.27349 2 8.26841C2 12.2941 2.00234 12.442 2.06991 12.7127C2.18156 13.1598 2.35964 13.4707 2.70698 13.8251C2.93523 14.0579 3.0763 14.1678 3.27633 14.2684C3.56698 14.4145 3.91836 14.5127 4.15381 14.5135L4.30448 14.5141V16.257C4.30448 17.4751 4.31594 18 4.34256 18C4.36351 18 5.42049 17.2587 6.69136 16.3526C7.96227 15.4466 9.06413 14.6622 9.14 14.6097L9.27788 14.5141H13.1511H17.0243L17.3035 14.4312C18.096 14.1961 18.7071 13.5607 18.9349 12.7348C18.9964 12.5119 19 12.2632 19 8.26841C19 4.27363 18.9964 4.02493 18.9349 3.80205C18.7529 3.14226 18.2965 2.56196 17.7402 2.28294C17.1371 1.9805 17.7922 2.00676 10.6861 2.00051C7.20547 1.99746 4.23638 2.00843 4.08815 2.02484ZM17.1208 3.11518C17.491 3.25705 17.7683 3.54064 17.9245 3.93706L18.0073 4.14701V8.26841V12.3898L17.9245 12.5998C17.7683 12.9962 17.491 13.2798 17.1208 13.4217C16.9249 13.4967 16.89 13.4973 12.9367 13.4973H8.95004L7.1502 14.7804L5.35036 16.0635L5.33264 14.7895L5.31491 13.5155L4.65902 13.4956C4.23109 13.4826 3.96002 13.4584 3.87904 13.426C3.54127 13.2906 3.28037 13.0403 3.12069 12.6985L3.01043 12.4624V8.26841V4.07439L3.10537 3.86694C3.23421 3.58541 3.36528 3.42346 3.58751 3.27135C3.93839 3.03111 3.45647 3.04702 10.4987 3.0431L16.9233 3.0395L17.1208 3.11518ZM6.53806 6.12601V6.63438H10.4911H14.4442V6.12601V5.61765H10.4911H6.53806V6.12601ZM6.53806 8.30473V8.81309H10.4911H14.4442V8.30473V7.79636H10.4911H6.53806V8.30473ZM6.53806 10.4834V10.9918H10.4911H14.4442V10.4834V9.97507H10.4911H6.53806V10.4834Z" fill="#216DD1"/>
</svg>
